<svg xmlns="http://www.w3.org/2000/svg" width="54" height="54" viewBox="0 0 54 54">
  <g id="instagram_logo-czd-fZWQ" data-name="instagram logo-czd-fZWQ" transform="translate(-0.391)">
    <circle id="Ellipse_315" data-name="Ellipse 315" cx="27" cy="27" r="27" transform="translate(0.391)" fill="#283e56"/>
    <g id="Group_475" data-name="Group 475" transform="translate(12.125 12.125)">
      <g id="Group_474" data-name="Group 474">
        <path id="Path_399" data-name="Path 399" d="M26.775,0H2.975A2.984,2.984,0,0,0,0,2.975v23.8A2.984,2.984,0,0,0,2.975,29.75h23.8a2.984,2.984,0,0,0,2.975-2.975V2.975A2.984,2.984,0,0,0,26.775,0Zm-11.9,8.925a5.95,5.95,0,1,1-5.95,5.95,5.95,5.95,0,0,1,5.95-5.95ZM3.719,26.775a.7.7,0,0,1-.744-.744V13.387H6.1a5.06,5.06,0,0,0-.149,1.488,8.925,8.925,0,0,0,17.85,0,5.062,5.062,0,0,0-.149-1.488h3.124V26.031a.7.7,0,0,1-.744.744ZM26.775,6.694a.7.7,0,0,1-.744.744H23.056a.7.7,0,0,1-.744-.744V3.719a.7.7,0,0,1,.744-.744h2.975a.7.7,0,0,1,.744.744Z" fill="#fff" fill-rule="evenodd"/>
      </g>
    </g>
  </g>
</svg>
