<svg xmlns="http://www.w3.org/2000/svg" width="54" height="54" viewBox="0 0 54 54">
  <g id="tweet_logo-1XSGvmMz" data-name="tweet logo-1XSGvmMz" transform="translate(0.305)">
    <circle id="Ellipse_314" data-name="Ellipse 314" cx="27" cy="27" r="27" transform="translate(-0.305)" fill="#283e56"/>
    <g id="Group_472" data-name="Group 472" transform="translate(11.962 14.8)">
      <g id="Group_471" data-name="Group 471">
        <path id="Path_398" data-name="Path 398" d="M30.7,1.8a.483.483,0,0,0-.7,0,8.281,8.281,0,0,1-3,.7c-.3,0-.7.1-1,.1A6.713,6.713,0,0,0,21.5.8,6.487,6.487,0,0,0,15,7.3v.6A16.245,16.245,0,0,1,4.2,2.2a.864.864,0,0,0-.6-.3.918.918,0,0,0-.6.4c0,.1-.9,2.1-.9,7.3,0,5,4.8,8.5,7,9.8a11.963,11.963,0,0,1-7.4,1.7.752.752,0,0,0-.7.5.67.67,0,0,0,.3.8,17.174,17.174,0,0,0,9.4,2.7A17.105,17.105,0,0,0,28.1,8.2c.2-.4.9-1.3,2.1-3.2A12.089,12.089,0,0,0,31,2.5a1.08,1.08,0,0,0-.3-.7Z" transform="translate(-0.962 -0.8)" fill="#fff" fill-rule="evenodd"/>
      </g>
    </g>
  </g>
</svg>
