<?xml version='1.0' encoding='utf-8'?>
<svg xmlns:xlink="http://www.w3.org/1999/xlink" xmlns="http://www.w3.org/2000/svg" version="1.1" x="0px" y="0px" width="595.279px" height="528.283px" viewBox="0 141.95 595.279 528.283" enable-background="new 0 141.95 595.279 528.283"> <g id="Warstwa_2"> </g> <g id="Warstwa_1"> <g id="Layer_1"> </g> <g> <defs> <rect id="SVGID_1_" x="55.942" y="50.939" width="485.396" height="570.586"/> </defs> <clipPath id="SVGID_2_"> <use xlink:href="#SVGID_1_" overflow="visible"/> </clipPath> <g clip-path="url(#SVGID_2_)"> <rect x="55.942" y="50.939" fill="#FFFFFF" width="485.396" height="570.586"/> </g> <g id="Layer_9_2_" clip-path="url(#SVGID_2_)"> <g> <g> <ellipse fill="#FFFFFF" cx="294.855" cy="427.719" rx="279.109" ry="188.375"/> </g> </g> </g> <g id="Layer_8_2_" clip-path="url(#SVGID_2_)"> <g> <g> <g> <path fill="#F2F2E6" d="M552.258,300.914c-34.253,1.636-70.469,5.831-107.823,12.787 c-74.343,13.843-141.139,36.601-193.663,63.761c4.013-0.271,8.076-0.67,12.034-0.85c16.509-8.22,34.3-15.992,53.304-23.169 c9.648-3.645,19.629-7.133,29.844-10.458c30.644-9.973,63.721-18.431,98.554-24.917c10.806-2.011,21.531-3.765,32.172-5.313 c4.109-0.598,8.149-1.047,12.228-1.578c6.416-0.833,12.812-1.637,19.145-2.305c4.686-0.494,9.316-0.906,13.95-1.31 c5.971-0.52,11.906-0.962,17.784-1.333c1.938-0.123,3.828-0.23,5.752-0.341C547.685,304.185,549.968,302.546,552.258,300.914z M555.752,308.945c-34.253,1.636-70.494,5.832-107.847,12.787c-74.345,13.843-141.116,36.602-193.641,63.762 c4.014-0.27,8.053-0.672,12.011-0.849c16.51-8.223,34.302-15.992,53.304-23.171c9.649-3.643,19.629-7.132,29.844-10.457 c30.644-9.973,63.723-18.432,98.554-24.918c10.805-2.012,21.533-3.765,32.173-5.313c4.109-0.598,8.148-1.048,12.229-1.577 c6.415-0.833,12.81-1.638,19.144-2.306c4.685-0.493,9.317-0.906,13.95-1.31c5.973-0.521,11.905-0.961,17.783-1.334 c1.938-0.124,3.854-0.229,5.777-0.34C551.179,312.216,553.463,310.576,555.752,308.945z M567.18,314.55 c-34.255,1.635-70.47,5.831-107.822,12.786c-74.347,13.844-141.139,36.602-193.665,63.761 c4.014-0.27,8.078-0.648,12.035-0.825c16.51-8.223,34.302-16.017,53.305-23.195c9.646-3.645,19.629-7.132,29.843-10.457 c30.644-9.974,63.724-18.432,98.553-24.918c10.807-2.012,21.533-3.765,32.174-5.313c4.108-0.598,8.149-1.047,12.228-1.576 c6.416-0.834,12.811-1.639,19.144-2.305c0.229-0.024,0.451-0.025,0.679-0.048c-14.563,1.912-29.296,4.125-44.278,6.914 c-74.344,13.844-141.139,36.602-193.664,63.763c4.014-0.271,8.078-0.647,12.034-0.825 c16.51-8.223,34.302-16.019,53.304-23.197c9.647-3.644,19.629-7.132,29.843-10.457c30.644-9.973,63.724-18.431,98.555-24.917 c10.807-2.012,21.509-3.766,32.149-5.313c4.108-0.598,8.172-1.047,12.251-1.577c6.416-0.834,12.811-1.638,19.143-2.305 c4.687-0.494,9.293-0.907,13.929-1.312c5.97-0.52,11.906-0.96,17.783-1.333c1.938-0.124,3.852-0.231,5.774-0.34 c2.147-1.704,4.432-3.343,6.722-4.974c-8.229,0.393-16.571,0.959-25.015,1.649C563.823,316.998,565.478,315.761,567.18,314.55 z M602.191,320.3c-34.255,1.636-70.492,5.831-107.848,12.786c-74.344,13.844-141.138,36.602-193.663,63.763 c4.014-0.271,8.076-0.648,12.032-0.825c16.51-8.223,34.303-16.017,53.307-23.195c9.647-3.645,19.628-7.133,29.843-10.458 c30.643-9.973,63.723-18.431,98.555-24.917c10.806-2.013,21.532-3.766,32.172-5.313c4.108-0.599,8.148-1.049,12.229-1.578 c6.415-0.833,12.81-1.638,19.143-2.305c4.685-0.494,9.317-0.907,13.951-1.311c5.97-0.52,11.906-0.961,17.785-1.334 c1.937-0.124,3.851-0.23,5.773-0.34C597.616,323.571,599.902,321.931,602.191,320.3z M614.686,325.564 c-34.253,1.636-70.469,5.831-107.822,12.787c-74.347,13.843-141.139,36.601-193.663,63.762 c4.012-0.271,8.076-0.648,12.033-0.825c16.508-8.223,34.301-16.018,53.305-23.196c9.648-3.644,19.629-7.133,29.841-10.456 c30.646-9.974,63.724-18.433,98.557-24.918c10.805-2.011,21.507-3.765,32.147-5.313c4.108-0.598,8.174-1.047,12.252-1.577 c6.416-0.834,12.812-1.637,19.144-2.306c4.685-0.494,9.293-0.906,13.927-1.309c5.972-0.52,11.906-0.962,17.785-1.335 c1.937-0.123,3.851-0.23,5.775-0.34C610.112,328.835,612.397,327.196,614.686,325.564z M617.161,330.029 c-34.196,2.575-70.311,7.745-107.459,15.723c-73.938,15.877-140.06,40.46-191.82,69.051c4.005-0.38,8.034-0.879,11.985-1.164 c16.278-8.673,33.851-16.931,52.649-24.627c9.543-3.908,19.433-7.678,29.552-11.282c30.358-10.81,63.186-20.172,97.827-27.611 c10.746-2.308,21.408-4.348,32.001-6.188c4.093-0.71,8.142-1.274,12.206-1.916c6.389-1.01,12.757-1.975,19.069-2.814 c4.669-0.623,9.28-1.168,13.903-1.699c5.954-0.685,11.869-1.31,17.734-1.844c1.934-0.175,3.833-0.323,5.751-0.485 C612.66,333.412,614.917,331.722,617.161,330.029z M623.662,334.13c-34.143,3.191-70.144,9.041-107.143,17.688 c-73.64,17.207-139.323,42.954-190.559,72.472c3.997-0.452,8.017-1.001,11.961-1.358 c16.119-8.963,33.556-17.538,52.213-25.574c9.474-4.079,19.279-8.029,29.333-11.816c30.16-11.355,62.816-21.318,97.319-29.381 c10.7-2.501,21.321-4.738,31.881-6.769c4.076-0.784,8.104-1.396,12.153-2.111c6.371-1.125,12.728-2.225,19.023-3.179 c4.657-0.706,9.267-1.326,13.877-1.941c5.943-0.791,11.855-1.519,17.713-2.159c1.929-0.211,3.811-0.411,5.727-0.606 C619.228,337.596,621.449,335.863,623.662,334.13z M634.849,338.327c-34.092,3.719-69.992,10.12-106.854,19.337 c-48.474,12.122-93.296,27.979-132.861,46.05c5.229-1.538,10.754-2.382,16.476-2.451c6.555-2.821,13.055-5.683,19.87-8.37 c29.979-11.821,62.483-22.291,96.856-30.886c10.662-2.666,21.258-5.062,31.784-7.255c4.064-0.847,8.093-1.527,12.132-2.306 c6.352-1.222,12.667-2.417,18.948-3.47c4.646-0.777,9.254-1.473,13.854-2.158c5.929-0.884,11.818-1.696,17.665-2.426 c1.925-0.241,3.812-0.477,5.726-0.705C630.482,341.858,632.661,340.094,634.849,338.327z M649.841,341.821 c-34.043,4.121-69.857,10.923-106.608,20.574c-42.074,11.049-81.304,24.922-116.752,40.543 c2.224,0.531,4.384,1.197,6.502,1.966c4.722-2.046,9.295-4.16,14.146-6.138c29.838-12.175,62.224-23.004,96.494-32.003 c10.629-2.792,21.186-5.326,31.686-7.644c4.053-0.895,8.076-1.649,12.106-2.474c6.338-1.298,12.633-2.562,18.9-3.688 c4.637-0.833,9.237-1.565,13.829-2.305c5.918-0.953,11.804-1.846,17.64-2.646c1.923-0.263,3.816-0.501,5.726-0.752 C645.529,345.401,647.677,343.614,649.841,341.821z M663.573,344.708c-33.959,4.767-69.661,12.265-106.222,22.614 c-41.316,11.694-79.801,26.082-114.592,42.12c1.519,0.884,3.012,1.829,4.441,2.838c4.927-2.257,9.703-4.587,14.776-6.771 c29.602-12.737,61.77-24.195,95.86-33.845c10.577-2.993,21.088-5.708,31.542-8.225c4.035-0.972,8.021-1.792,12.033-2.693 c6.313-1.418,12.606-2.808,18.853-4.052c4.62-0.921,9.18-1.745,13.757-2.571c5.898-1.065,11.771-2.075,17.59-2.985 c1.919-0.301,3.821-0.588,5.728-0.873C659.322,348.371,661.444,346.542,663.573,344.708z M716.031,344.975 c-5.914,1.404-11.928,3.001-17.93,4.585c1.471-1.509,2.973-3,4.512-4.488c-9.851,1.966-19.866,4.245-29.965,6.696 c1.456-1.402,2.928-2.815,4.441-4.197c-33.808,5.746-69.271,14.27-105.519,25.67c-35.132,11.05-68.175,24.01-98.53,38.213 c4.024-1.027,8.181-1.723,12.521-1.723c0.541,0,1.062,0.056,1.601,0.074c26.518-11.855,54.925-22.758,85.017-32.222 c10.485-3.296,20.897-6.33,31.273-9.146c4.008-1.088,7.977-2.016,11.961-3.033c6.271-1.6,12.525-3.186,18.731-4.611 c4.591-1.054,9.134-2.002,13.685-2.959c1.537-0.324,3.053-0.608,4.586-0.922c-17.918,4.859-36.137,10.465-54.543,16.839 c-33.542,11.616-65.041,24.965-94.091,39.402c1.75,0.667,3.468,1.406,5.119,2.256c27.729-13.66,57.754-26.303,89.699-37.365 c10.387-3.595,20.717-6.906,31.009-10.02c3.973-1.203,7.908-2.267,11.865-3.397c6.22-1.779,12.421-3.519,18.584-5.12 c4.561-1.184,9.089-2.283,13.61-3.372c1.759-0.422,3.489-0.779,5.241-1.189c-21.793,6.364-44.005,13.757-66.504,22.468 c-33.854,13.105-65.539,27.945-94.574,43.817c1.17,0.95,2.285,1.963,3.373,3.008c28.23-15.406,59.106-29.792,92.075-42.554 c10.249-3.969,20.471-7.656,30.644-11.138c3.929-1.345,7.831-2.538,11.743-3.808c6.151-2.002,12.265-3.977,18.367-5.799 c4.513-1.349,8.984-2.583,13.464-3.834c5.774-1.611,11.542-3.159,17.252-4.609c1.882-0.479,3.733-0.945,5.604-1.408 C712.15,349.02,714.081,346.999,716.031,344.975z M732.917,352.229c-33.367,7.917-68.191,18.723-103.626,32.439 c-36.49,14.126-70.484,30.246-101.32,47.532c0.836,1.207,1.618,2.454,2.354,3.734c2.553-1.435,4.949-2.923,7.544-4.342 c28.284-15.446,59.253-29.864,92.296-42.654c10.25-3.967,20.472-7.655,30.644-11.136c3.928-1.345,7.808-2.536,11.718-3.809 c6.153-2.001,12.291-3.978,18.393-5.799c4.512-1.348,8.984-2.583,13.465-3.833c5.774-1.611,11.518-3.161,17.227-4.609 c1.882-0.478,3.759-0.946,5.628-1.408C729.036,356.274,730.967,354.254,732.917,352.229z M746.409,362.323 c-33.368,7.916-68.193,18.723-103.627,32.438c-39.153,15.158-75.369,32.637-107.945,51.364c0.46,1.438,0.85,2.902,1.189,4.393 c5.103-2.952,10.077-5.948,15.356-8.831c28.284-15.448,59.23-29.863,92.271-42.654c10.25-3.968,20.47-7.654,30.644-11.137 c3.928-1.345,7.833-2.537,11.743-3.809c6.153-2.001,12.289-3.976,18.391-5.799c4.515-1.349,8.962-2.607,13.441-3.857 c5.774-1.612,11.542-3.136,17.253-4.586c1.88-0.479,3.738-0.945,5.6-1.407C742.528,366.368,744.453,364.348,746.409,362.323z M378.466,411.527c-14.103,6.936-27.437,14.137-39.889,21.568c3.991-0.511,8.022-1.159,11.962-1.577 c4.778-2.755,9.909-5.394,14.921-8.077C369.177,418.87,373.548,414.841,378.466,411.527z M356.337,439.113 c-0.525,0.32-1.102,0.627-1.625,0.948c0.446-0.063,0.888-0.13,1.334-0.195C356.141,439.614,356.24,439.362,356.337,439.113z M707.03,448.382c-0.309,1.385-0.562,2.785-0.946,4.149c1.918,1.957,3.836,3.916,5.58,5.919 c-1.949-1.448-4.09-2.797-6.139-4.198c-0.804,2.627-1.695,5.225-2.766,7.766c1.688,1.015,3.407,2.017,5.047,3.059 c0.416,0.262,0.777,0.56,1.188,0.822c1.11,1.835,2.241,3.669,3.203,5.533c-0.702-1.66-1.494-3.339-2.306-4.974 c1.899,1.237,3.782,2.492,5.605,3.76c2.596,1.81,5.142,3.639,7.569,5.508c0.649,0.498,1.24,1.022,1.869,1.528 c0.399,0.727,0.884,1.43,1.26,2.161c-0.261-0.618-0.597-1.232-0.873-1.845c1.379,1.119,2.786,2.236,4.125,3.373 c2.007,1.697,3.98,3.39,5.896,5.118c0.215,0.402,0.472,0.81,0.679,1.214c-0.144-0.341-0.311-0.68-0.46-1.019 c0.484,0.439,1.015,0.862,1.48,1.308c5.369,5.164,10.098,10.535,14.219,16.038c0.934,1.576,1.91,3.155,2.742,4.757 c-0.365-0.85-0.775-1.68-1.164-2.525c2.74,3.861,5.255,7.763,7.329,11.769c-2.764-6.515-6.585-12.801-10.994-18.923 c-1.366-2.396-3.012-4.724-4.611-7.062c-7.618-15.36-20.164-29.562-36.562-42.363 C707.687,448.964,707.347,448.672,707.03,448.382z M712.948,457.286c2.954,2.841,5.689,5.764,8.275,8.711 c-1.674-1.432-3.402-2.849-5.171-4.245C715.013,460.262,714.081,458.75,712.948,457.286z M705.16,458.185 c1.4,0.928,2.815,1.845,4.174,2.791c2.596,1.806,5.165,3.612,7.593,5.482c0.925,0.711,1.762,1.435,2.646,2.158 c0.196,0.283,0.414,0.566,0.607,0.85c-4.389-3.37-9.047-6.601-13.977-9.753C705.892,459.194,705.483,458.698,705.16,458.185z M723.722,466.506c5.791,5.566,10.812,11.363,15.143,17.324c-3.511-4.297-7.512-8.461-11.795-12.52 C725.989,469.696,724.911,468.09,723.722,466.506z M721.708,470.364c0.523,0.44,1.078,0.891,1.601,1.333 c0.281,0.241,0.541,0.466,0.824,0.704c-0.692-0.564-1.496-1.091-2.206-1.649C721.853,470.62,721.781,470.496,721.708,470.364z M727.022,474.926c1.129,0.967,2.294,1.921,3.348,2.91c0.066,0.101,0.129,0.217,0.194,0.316 C729.382,477.084,728.254,475.977,727.022,474.926z"/> </g> </g> <g> <g> <path fill="#D9D9C3" d="M707.031,448.392c-0.311,1.385-0.562,2.778-0.945,4.143c1.918,1.956,3.832,3.912,5.575,5.916 c-1.948-1.448-4.099-2.804-6.146-4.203c-0.803,2.624-1.674,5.234-2.745,7.777c1.688,1.015,3.393,2.022,5.031,3.062 c0.416,0.264,0.791,0.545,1.202,0.81c1.111,1.835,2.24,3.662,3.203,5.526c-0.704-1.66-1.505-3.319-2.316-4.954 c1.9,1.237,3.781,2.482,5.604,3.752c2.595,1.808,5.147,3.626,7.576,5.495c0.649,0.5,1.231,1.025,1.858,1.531 c0.4,0.725,0.881,1.433,1.259,2.16c-0.262-0.616-0.582-1.217-0.858-1.829c1.379,1.119,2.777,2.228,4.118,3.36 c2.005,1.7,3.974,3.408,5.89,5.137c0.215,0.401,0.478,0.797,0.685,1.201c-0.143-0.341-0.307-0.68-0.456-1.021 c0.485,0.439,1.022,0.875,1.486,1.32c5.367,5.165,10.096,10.533,14.209,16.033c0.94,1.58,1.918,3.146,2.749,4.744 c-0.364-0.848-0.782-1.679-1.171-2.522c2.74,3.861,5.248,7.766,7.312,11.771c-2.755-6.516-6.567-12.79-10.977-18.915 c-1.358-2.395-3.005-4.719-4.604-7.057c-7.615-15.36-20.171-29.567-36.568-42.367 C707.689,448.969,707.349,448.682,707.031,448.392z M712.948,457.28c2.954,2.84,5.68,5.759,8.263,8.707 c-1.673-1.432-3.377-2.837-5.146-4.235C715.025,460.264,714.081,458.742,712.948,457.28z M705.172,458.18 c1.399,0.929,2.816,1.847,4.173,2.793c2.596,1.807,5.149,3.626,7.577,5.495c0.925,0.711,1.776,1.438,2.659,2.161 c0.196,0.283,0.41,0.556,0.602,0.84c-4.389-3.37-9.052-6.604-13.981-9.756C705.89,459.194,705.493,458.693,705.172,458.18z M723.728,466.498c5.793,5.566,10.798,11.363,15.127,17.324c-3.508-4.296-7.498-8.461-11.781-12.522 C725.99,469.689,724.918,468.082,723.728,466.498z M721.698,470.372c0.526,0.44,1.078,0.875,1.602,1.318 c0.283,0.239,0.546,0.482,0.829,0.721c-0.694-0.563-1.49-1.091-2.201-1.652C721.854,470.627,721.773,470.504,721.698,470.372z M727.016,474.934c1.13,0.967,2.29,1.923,3.346,2.912c0.066,0.1,0.135,0.202,0.201,0.301 C729.379,477.077,728.251,475.983,727.016,474.934z"/> </g> </g> <g> <g> <path fill="#D9D9C3" d="M707.031,448.392c-0.311,1.385-0.562,2.778-0.945,4.143c1.918,1.956,3.832,3.912,5.575,5.916 c-1.948-1.448-4.099-2.804-6.146-4.203c-0.803,2.624-1.674,5.234-2.745,7.777c1.688,1.015,3.393,2.022,5.031,3.062 c0.416,0.264,0.791,0.545,1.202,0.81c1.111,1.835,2.24,3.662,3.203,5.526c-0.704-1.66-1.505-3.319-2.316-4.954 c1.9,1.237,3.781,2.482,5.604,3.752c2.595,1.808,5.147,3.626,7.576,5.495c0.649,0.5,1.231,1.025,1.858,1.531 c0.4,0.725,0.881,1.433,1.259,2.16c-0.262-0.616-0.582-1.217-0.858-1.829c1.379,1.119,2.777,2.228,4.118,3.36 c2.005,1.7,3.974,3.408,5.89,5.137c0.215,0.401,0.478,0.797,0.685,1.201c-0.143-0.341-0.307-0.68-0.456-1.021 c0.485,0.439,1.022,0.875,1.486,1.32c5.367,5.165,10.096,10.533,14.209,16.033c0.94,1.58,1.918,3.146,2.749,4.744 c-0.364-0.848-0.782-1.679-1.171-2.522c2.74,3.861,5.248,7.766,7.312,11.771c-2.755-6.516-6.567-12.79-10.977-18.915 c-1.358-2.395-3.005-4.719-4.604-7.057c-7.615-15.36-20.171-29.567-36.568-42.367 C707.689,448.969,707.349,448.682,707.031,448.392z M712.948,457.28c2.954,2.84,5.68,5.759,8.263,8.707 c-1.673-1.432-3.377-2.837-5.146-4.235C715.025,460.264,714.081,458.742,712.948,457.28z M705.172,458.18 c1.399,0.929,2.816,1.847,4.173,2.793c2.596,1.807,5.149,3.626,7.577,5.495c0.925,0.711,1.776,1.438,2.659,2.161 c0.196,0.283,0.41,0.556,0.602,0.84c-4.389-3.37-9.052-6.604-13.981-9.756C705.89,459.194,705.493,458.693,705.172,458.18z M723.728,466.498c5.793,5.566,10.798,11.363,15.127,17.324c-3.508-4.296-7.498-8.461-11.781-12.522 C725.99,469.689,724.918,468.082,723.728,466.498z M721.698,470.372c0.526,0.44,1.078,0.875,1.602,1.318 c0.283,0.239,0.546,0.482,0.829,0.721c-0.694-0.563-1.49-1.091-2.201-1.652C721.854,470.627,721.773,470.504,721.698,470.372z M727.016,474.934c1.13,0.967,2.29,1.923,3.346,2.912c0.066,0.1,0.135,0.202,0.201,0.301 C729.379,477.077,728.251,475.983,727.016,474.934z"/> </g> </g> <g> <g> <path fill="#D9D9C3" d="M707.031,448.392c-0.311,1.385-0.562,2.778-0.945,4.143c1.918,1.956,3.832,3.912,5.575,5.916 c-1.948-1.448-4.099-2.804-6.146-4.203c-0.803,2.624-1.674,5.234-2.745,7.777c1.688,1.015,3.393,2.022,5.031,3.062 c0.416,0.264,0.791,0.545,1.202,0.81c1.111,1.835,2.24,3.662,3.203,5.526c-0.704-1.66-1.505-3.319-2.316-4.954 c1.9,1.237,3.781,2.482,5.604,3.752c2.595,1.808,5.147,3.626,7.576,5.495c0.649,0.5,1.231,1.025,1.858,1.531 c0.4,0.725,0.881,1.433,1.259,2.16c-0.262-0.616-0.582-1.217-0.858-1.829c1.379,1.119,2.777,2.228,4.118,3.36 c2.005,1.7,3.974,3.408,5.89,5.137c0.215,0.401,0.478,0.797,0.685,1.201c-0.143-0.341-0.307-0.68-0.456-1.021 c0.485,0.439,1.022,0.875,1.486,1.32c5.367,5.165,10.096,10.533,14.209,16.033c0.94,1.58,1.918,3.146,2.749,4.744 c-0.364-0.848-0.782-1.679-1.171-2.522c2.74,3.861,5.248,7.766,7.312,11.771c-2.755-6.516-6.567-12.79-10.977-18.915 c-1.358-2.395-3.005-4.719-4.604-7.057c-7.615-15.36-20.171-29.567-36.568-42.367 C707.689,448.969,707.349,448.682,707.031,448.392z M712.948,457.28c2.954,2.84,5.68,5.759,8.263,8.707 c-1.673-1.432-3.377-2.837-5.146-4.235C715.025,460.264,714.081,458.742,712.948,457.28z M705.172,458.18 c1.399,0.929,2.816,1.847,4.173,2.793c2.596,1.807,5.149,3.626,7.577,5.495c0.925,0.711,1.776,1.438,2.659,2.161 c0.196,0.283,0.41,0.556,0.602,0.84c-4.389-3.37-9.052-6.604-13.981-9.756C705.89,459.194,705.493,458.693,705.172,458.18z M723.728,466.498c5.793,5.566,10.798,11.363,15.127,17.324c-3.508-4.296-7.498-8.461-11.781-12.522 C725.99,469.689,724.918,468.082,723.728,466.498z M721.698,470.372c0.526,0.44,1.078,0.875,1.602,1.318 c0.283,0.239,0.546,0.482,0.829,0.721c-0.694-0.563-1.49-1.091-2.201-1.652C721.854,470.627,721.773,470.504,721.698,470.372z M727.016,474.934c1.13,0.967,2.29,1.923,3.346,2.912c0.066,0.1,0.135,0.202,0.201,0.301 C729.379,477.077,728.251,475.983,727.016,474.934z"/> </g> </g> <g> <g> <path fill="#D9D9C3" d="M707.031,448.392c-0.311,1.385-0.562,2.778-0.945,4.143c1.918,1.956,3.832,3.912,5.575,5.916 c-1.948-1.448-4.099-2.804-6.146-4.203c-0.803,2.624-1.674,5.234-2.745,7.777c1.688,1.015,3.393,2.022,5.031,3.062 c0.416,0.264,0.791,0.545,1.202,0.81c1.111,1.835,2.24,3.662,3.203,5.526c-0.704-1.66-1.505-3.319-2.316-4.954 c1.9,1.237,3.781,2.482,5.604,3.752c2.595,1.808,5.147,3.626,7.576,5.495c0.649,0.5,1.231,1.025,1.858,1.531 c0.4,0.725,0.881,1.433,1.259,2.16c-0.262-0.616-0.582-1.217-0.858-1.829c1.379,1.119,2.777,2.228,4.118,3.36 c2.005,1.7,3.974,3.408,5.89,5.137c0.215,0.401,0.478,0.797,0.685,1.201c-0.143-0.341-0.307-0.68-0.456-1.021 c0.485,0.439,1.022,0.875,1.486,1.32c5.367,5.165,10.096,10.533,14.209,16.033c0.94,1.58,1.918,3.146,2.749,4.744 c-0.364-0.848-0.782-1.679-1.171-2.522c2.74,3.861,5.248,7.766,7.312,11.771c-2.755-6.516-6.567-12.79-10.977-18.915 c-1.358-2.395-3.005-4.719-4.604-7.057c-7.615-15.36-20.171-29.567-36.568-42.367 C707.689,448.969,707.349,448.682,707.031,448.392z M712.948,457.28c2.954,2.84,5.68,5.759,8.263,8.707 c-1.673-1.432-3.377-2.837-5.146-4.235C715.025,460.264,714.081,458.742,712.948,457.28z M705.172,458.18 c1.399,0.929,2.816,1.847,4.173,2.793c2.596,1.807,5.149,3.626,7.577,5.495c0.925,0.711,1.776,1.438,2.659,2.161 c0.196,0.283,0.41,0.556,0.602,0.84c-4.389-3.37-9.052-6.604-13.981-9.756C705.89,459.194,705.493,458.693,705.172,458.18z M723.728,466.498c5.793,5.566,10.798,11.363,15.127,17.324c-3.508-4.296-7.498-8.461-11.781-12.522 C725.99,469.689,724.918,468.082,723.728,466.498z M721.698,470.372c0.526,0.44,1.078,0.875,1.602,1.318 c0.283,0.239,0.546,0.482,0.829,0.721c-0.694-0.563-1.49-1.091-2.201-1.652C721.854,470.627,721.773,470.504,721.698,470.372z M727.016,474.934c1.13,0.967,2.29,1.923,3.346,2.912c0.066,0.1,0.135,0.202,0.201,0.301 C729.379,477.077,728.251,475.983,727.016,474.934z"/> </g> </g> <g> <g> <path fill="#D9D9C3" d="M726.159,459.279c-0.307,1.387-0.559,2.781-0.943,4.146c1.92,1.955,3.831,3.911,5.576,5.915 c-1.947-1.447-4.099-2.804-6.146-4.205c-0.804,2.626-1.674,5.237-2.745,7.777c1.688,1.017,3.395,2.024,5.032,3.062 c0.415,0.266,0.791,0.546,1.2,0.812c1.11,1.835,2.242,3.661,3.203,5.522c-0.703-1.656-1.503-3.316-2.317-4.954 c1.903,1.24,3.782,2.485,5.605,3.755c2.597,1.807,5.147,3.626,7.578,5.496c0.651,0.498,1.234,1.025,1.854,1.53 c0.403,0.724,0.886,1.433,1.259,2.161c-0.257-0.617-0.575-1.217-0.855-1.832c1.375,1.121,2.781,2.227,4.115,3.365 c2.011,1.698,3.977,3.406,5.894,5.134c0.217,0.402,0.474,0.797,0.683,1.199c-0.139-0.342-0.302-0.681-0.458-1.02 c0.489,0.44,1.025,0.873,1.491,1.32c5.373,5.161,10.093,10.533,14.208,16.034c0.939,1.576,1.918,3.145,2.748,4.744 c-0.364-0.849-0.784-1.681-1.173-2.521c2.742,3.858,5.249,7.763,7.322,11.769c-2.764-6.517-6.576-12.791-10.986-18.917 c-1.358-2.396-3.005-4.718-4.604-7.056c-7.617-15.36-20.171-29.567-36.568-42.365 C726.82,459.859,726.477,459.57,726.159,459.279z M732.079,468.168c2.953,2.841,5.682,5.761,8.266,8.706 c-1.676-1.43-3.382-2.833-5.148-4.232C734.156,471.154,733.213,469.633,732.079,468.168z M724.302,469.068 c1.4,0.93,2.818,1.848,4.175,2.794c2.596,1.807,5.149,3.625,7.577,5.492c0.925,0.714,1.777,1.44,2.662,2.163 c0.193,0.284,0.403,0.558,0.599,0.841c-4.389-3.37-9.054-6.606-13.983-9.759C725.021,470.083,724.624,469.582,724.302,469.068 z M742.862,477.386c5.792,5.568,10.793,11.362,15.125,17.326c-3.511-4.299-7.5-8.464-11.779-12.521 C745.121,480.575,744.051,478.97,742.862,477.386z M740.827,481.26c0.528,0.441,1.08,0.878,1.601,1.319 c0.286,0.241,0.551,0.484,0.83,0.722c-0.691-0.564-1.49-1.09-2.198-1.652C740.983,481.517,740.906,481.392,740.827,481.26z M746.146,485.824c1.133,0.966,2.291,1.923,3.348,2.912c0.069,0.098,0.132,0.202,0.201,0.301 C748.514,487.967,747.38,486.873,746.146,485.824z"/> </g> </g> <g> <g> <path fill="#D9D9C3" d="M726.159,459.279c-0.307,1.387-0.559,2.781-0.943,4.146c1.92,1.955,3.831,3.911,5.576,5.915 c-1.947-1.447-4.099-2.804-6.146-4.205c-0.804,2.626-1.674,5.237-2.745,7.777c1.688,1.017,3.395,2.024,5.032,3.062 c0.415,0.266,0.791,0.546,1.2,0.812c1.11,1.835,2.242,3.661,3.203,5.522c-0.703-1.656-1.503-3.316-2.317-4.954 c1.903,1.24,3.782,2.485,5.605,3.755c2.597,1.807,5.147,3.626,7.578,5.496c0.651,0.498,1.234,1.025,1.854,1.53 c0.403,0.724,0.886,1.433,1.259,2.161c-0.257-0.617-0.575-1.217-0.855-1.832c1.375,1.121,2.781,2.227,4.115,3.365 c2.011,1.698,3.977,3.406,5.894,5.134c0.217,0.402,0.474,0.797,0.683,1.199c-0.139-0.342-0.302-0.681-0.458-1.02 c0.489,0.44,1.025,0.873,1.491,1.32c5.373,5.161,10.093,10.533,14.208,16.034c0.939,1.576,1.918,3.145,2.748,4.744 c-0.364-0.849-0.784-1.681-1.173-2.521c2.742,3.858,5.249,7.763,7.322,11.769c-2.764-6.517-6.576-12.791-10.986-18.917 c-1.358-2.396-3.005-4.718-4.604-7.056c-7.617-15.36-20.171-29.567-36.568-42.365 C726.82,459.859,726.477,459.57,726.159,459.279z M732.079,468.168c2.953,2.841,5.682,5.761,8.266,8.706 c-1.676-1.43-3.382-2.833-5.148-4.232C734.156,471.154,733.213,469.633,732.079,468.168z M724.302,469.068 c1.4,0.93,2.818,1.848,4.175,2.794c2.596,1.807,5.149,3.625,7.577,5.492c0.925,0.714,1.777,1.44,2.662,2.163 c0.193,0.284,0.403,0.558,0.599,0.841c-4.389-3.37-9.054-6.606-13.983-9.759C725.021,470.083,724.624,469.582,724.302,469.068 z M740.827,481.26c0.528,0.441,1.08,0.878,1.601,1.319c0.286,0.241,0.551,0.484,0.83,0.722 c-0.691-0.564-1.49-1.09-2.198-1.652C740.983,481.517,740.906,481.392,740.827,481.26z M746.146,485.824 c1.133,0.966,2.291,1.923,3.348,2.912c0.069,0.098,0.132,0.202,0.201,0.301C748.514,487.967,747.38,486.873,746.146,485.824z"/> </g> </g> <g> <g> <path fill="#F2F2E6" d="M43.137,338.956c-79.262,0.911-144.378,18.755-175.103,47.652c2.916,0.754,5.81,1.461,8.735,2.233 c-1.472-1.511-2.973-3.001-4.513-4.489c9.85,1.966,19.866,4.243,29.964,6.696c-1.455-1.403-2.926-2.815-4.439-4.196 c33.807,5.746,69.271,14.267,105.517,25.668c35.131,11.049,68.176,24.011,98.53,38.213c-4.022-1.026-8.178-1.723-12.519-1.723 c-0.542,0-1.063,0.057-1.601,0.073c-26.518-11.854-54.927-22.757-85.017-32.222c-10.484-3.297-20.897-6.328-31.274-9.146 c-4.008-1.089-7.975-2.017-11.961-3.034c-6.269-1.6-12.524-3.184-18.73-4.609c-4.592-1.055-9.132-2.001-13.685-2.96 c-1.539-0.323-3.053-0.609-4.586-0.923c17.918,4.859,36.137,10.467,54.542,16.839c33.543,11.615,65.042,24.967,94.089,39.402 c-1.748,0.67-3.466,1.408-5.119,2.257C38.239,441.03,8.217,428.387-23.73,417.325c-10.386-3.598-20.716-6.908-31.007-10.022 c-3.974-1.202-7.91-2.265-11.865-3.396c-6.221-1.779-12.422-3.52-18.584-5.12c-4.56-1.185-9.089-2.283-13.611-3.372 c-1.758-0.424-3.489-0.78-5.242-1.188c21.795,6.362,44.005,13.756,66.504,22.466c33.853,13.105,65.54,27.944,94.575,43.818 c-1.172,0.948-2.286,1.961-3.372,3.009c-28.232-15.409-59.108-29.796-92.077-42.557c-10.25-3.969-20.471-7.654-30.645-11.137 c-3.927-1.345-7.831-2.537-11.742-3.81c-6.153-2.001-12.266-3.978-18.367-5.799c-4.514-1.347-8.986-2.582-13.466-3.833 c-5.773-1.61-11.541-3.161-17.25-4.61c-1.883-0.478-3.736-0.944-5.605-1.407c-0.043-0.05-0.101-0.095-0.146-0.147 c-1.762,1.888-3.329,3.828-4.804,5.799c27.952,7.371,56.748,16.599,86.01,27.928c36.491,14.126,70.485,30.244,101.321,47.528 c-0.835,1.21-1.618,2.456-2.354,3.737c-2.553-1.435-4.948-2.926-7.545-4.343c-28.282-15.448-59.253-29.862-92.294-42.653 c-10.25-3.969-20.471-7.655-30.644-11.137c-3.927-1.346-7.807-2.538-11.719-3.811c-6.152-2-12.289-3.976-18.391-5.797 c-4.513-1.348-8.985-2.584-13.465-3.833c-4.594-1.283-9.153-2.48-13.708-3.664c-1.604,2.542-2.907,5.168-4.027,7.837 c25.848,7.069,52.414,15.803,79.338,26.227c39.152,15.157,75.369,32.635,107.944,51.365c-0.46,1.438-0.849,2.902-1.188,4.39 c-5.104-2.95-10.078-5.945-15.358-8.83c-28.283-15.448-59.229-29.863-92.271-42.654c-10.25-3.969-20.47-7.655-30.643-11.137 c-3.928-1.345-7.832-2.536-11.743-3.81c-6.153-2-12.29-3.976-18.392-5.797c-4.514-1.349-8.961-2.609-13.442-3.859 c-1.948-0.544-3.875-1.028-5.822-1.553c-0.861,2.755-1.553,5.546-1.893,8.418c-7.043,59.609,103.017,121.616,245.829,138.492 c142.811,16.873,264.284-17.789,271.328-77.397c7.043-59.608-110.966-113.71-276.779-137.933 C62.978,339.837,67.801,338.673,43.137,338.956z M23.892,340.963c34.253,1.636,70.468,5.831,107.822,12.786 c74.344,13.843,141.139,36.602,193.663,63.763c-4.013-0.271-8.076-0.673-12.033-0.849 c-16.509-8.224-34.301-15.994-53.305-23.172c-9.646-3.644-19.629-7.133-29.842-10.457 c-30.645-9.974-63.723-18.432-98.555-24.918c-10.806-2.012-21.531-3.765-32.172-5.313c-4.108-0.599-8.149-1.047-12.229-1.578 c-6.415-0.833-12.81-1.638-19.143-2.305c-4.684-0.493-9.317-0.906-13.952-1.31c-5.971-0.521-11.905-0.962-17.784-1.335 c-1.937-0.124-3.827-0.23-5.75-0.339C28.465,344.234,26.18,342.593,23.892,340.963z M19.118,348.225 c34.253,1.637,70.493,5.831,107.847,12.786c74.344,13.843,141.113,36.602,193.639,63.764 c-4.014-0.271-8.053-0.674-12.011-0.852c-16.508-8.223-34.3-15.993-53.304-23.17c-9.647-3.644-19.629-7.132-29.843-10.457 c-30.644-9.974-63.723-18.432-98.555-24.917c-10.805-2.012-21.532-3.765-32.171-5.313c-4.108-0.598-8.15-1.047-12.229-1.578 c-6.415-0.832-12.811-1.637-19.143-2.304c-4.685-0.493-9.317-0.906-13.951-1.31c-5.971-0.52-11.905-0.961-17.784-1.334 c-1.938-0.124-3.853-0.23-5.775-0.34C23.691,351.496,21.406,349.854,19.118,348.225z M7.689,353.829 c34.253,1.636,70.469,5.831,107.823,12.787c74.344,13.843,141.139,36.602,193.665,63.763 c-4.014-0.271-8.078-0.648-12.035-0.825c-16.51-8.224-34.301-16.019-53.306-23.195c-9.648-3.645-19.628-7.134-29.842-10.458 c-30.644-9.974-63.723-18.431-98.556-24.917c-10.804-2.012-21.53-3.765-32.171-5.313c-4.109-0.598-8.149-1.047-12.229-1.577 c-6.415-0.834-12.81-1.639-19.144-2.306c-0.227-0.024-0.451-0.025-0.678-0.048c14.565,1.914,29.296,4.125,44.279,6.914 c74.344,13.845,141.138,36.604,193.664,63.763c-4.014-0.27-8.077-0.647-12.035-0.824c-16.509-8.224-34.3-16.017-53.305-23.195 c-9.647-3.645-19.627-7.132-29.843-10.457c-30.644-9.974-63.722-18.432-98.554-24.918 c-10.805-2.013-21.507-3.765-32.147-5.314c-4.108-0.597-8.173-1.045-12.253-1.575c-6.415-0.834-12.81-1.638-19.143-2.306 c-4.685-0.493-9.292-0.905-13.927-1.31c-5.971-0.52-11.906-0.962-17.784-1.335c-1.938-0.123-3.852-0.229-5.775-0.339 c-2.146-1.703-4.432-3.343-6.722-4.974c8.229,0.393,16.572,0.959,25.015,1.649C11.048,356.277,9.391,355.041,7.689,353.829z M-27.322,359.58c34.254,1.635,70.494,5.83,107.848,12.786c74.345,13.844,141.139,36.602,193.664,63.762 c-4.014-0.27-8.078-0.648-12.034-0.825c-16.51-8.224-34.301-16.017-53.305-23.195c-9.647-3.643-19.628-7.132-29.843-10.457 c-30.644-9.974-63.721-18.432-98.554-24.918c-10.805-2.011-21.531-3.765-32.172-5.312c-4.108-0.6-8.149-1.047-12.228-1.579 c-6.415-0.833-12.81-1.637-19.143-2.304c-4.685-0.494-9.317-0.906-13.952-1.311c-5.971-0.521-11.905-0.962-17.785-1.335 c-1.937-0.123-3.851-0.229-5.773-0.339C-22.747,362.851-25.032,361.21-27.322,359.58z M-39.817,364.845 c34.253,1.636,70.468,5.831,107.823,12.788c74.344,13.842,141.139,36.601,193.664,63.76c-4.013-0.27-8.078-0.648-12.035-0.826 c-16.509-8.223-34.3-16.015-53.304-23.193c-9.647-3.644-19.628-7.132-29.844-10.457 c-30.644-9.974-63.721-18.432-98.555-24.917c-10.804-2.014-21.507-3.766-32.147-5.314c-4.108-0.599-8.173-1.047-12.252-1.577 c-6.416-0.833-12.81-1.638-19.144-2.305c-4.684-0.494-9.292-0.906-13.926-1.311c-5.971-0.519-11.905-0.961-17.785-1.333 c-1.937-0.124-3.851-0.23-5.773-0.339C-35.242,368.116-37.528,366.475-39.817,364.845z M-42.292,369.308 c34.196,2.576,70.31,7.745,107.459,15.724c73.937,15.875,140.061,40.462,191.821,69.051c-4.006-0.38-8.036-0.879-11.987-1.165 c-16.277-8.671-33.849-16.93-52.649-24.627c-9.544-3.905-19.433-7.677-29.552-11.281 c-30.358-10.811-63.185-20.173-97.826-27.61c-10.746-2.308-21.408-4.348-32.002-6.188c-4.091-0.711-8.141-1.275-12.204-1.917 c-6.39-1.011-12.757-1.975-19.07-2.815c-4.669-0.622-9.281-1.167-13.902-1.698c-5.956-0.685-11.87-1.311-17.737-1.845 c-1.933-0.175-3.832-0.322-5.75-0.484C-37.792,372.692-40.048,371.002-42.292,369.308z M-48.793,373.409 c34.143,3.19,70.144,9.042,107.144,17.687c73.638,17.208,139.321,42.954,190.558,72.472c-3.998-0.45-8.016-1.002-11.962-1.358 c-16.117-8.965-33.555-17.538-52.213-25.572c-9.47-4.078-19.28-8.031-29.333-11.816c-30.16-11.354-62.815-21.32-97.317-29.382 c-10.703-2.501-21.322-4.739-31.88-6.77c-4.077-0.783-8.104-1.395-12.156-2.11c-6.371-1.125-12.725-2.225-19.022-3.179 c-4.656-0.706-9.267-1.326-13.877-1.94c-5.941-0.791-11.856-1.521-17.713-2.159c-1.929-0.212-3.809-0.409-5.726-0.607 C-44.358,376.875-46.581,375.143-48.793,373.409z M-59.978,377.606c34.089,3.72,69.991,10.121,106.851,19.338 c48.475,12.121,93.299,27.979,132.862,46.049c-5.229-1.535-10.753-2.382-16.475-2.449c-6.555-2.821-13.054-5.684-19.871-8.371 c-29.979-11.822-62.483-22.292-96.856-30.887c-10.662-2.667-21.257-5.06-31.783-7.253c-4.064-0.848-8.092-1.528-12.131-2.305 c-6.353-1.224-12.668-2.417-18.949-3.47c-4.646-0.778-9.253-1.474-13.855-2.159c-5.928-0.883-11.817-1.695-17.663-2.427 c-1.926-0.24-3.812-0.477-5.726-0.703C-55.612,381.139-57.793,379.373-59.978,377.606z M-74.973,381.101 c34.044,4.119,69.86,10.922,106.609,20.574c42.074,11.051,81.303,24.922,116.751,40.542c-2.223,0.532-4.383,1.197-6.502,1.966 c-4.721-2.046-9.294-4.157-14.146-6.139c-29.837-12.173-62.223-23.001-96.492-32.002c-10.63-2.792-21.186-5.325-31.687-7.643 c-4.054-0.895-8.076-1.649-12.106-2.474c-6.338-1.298-12.633-2.563-18.901-3.689c-4.636-0.833-9.237-1.563-13.829-2.305 c-5.917-0.951-11.803-1.844-17.64-2.644c-1.923-0.263-3.815-0.503-5.726-0.751C-70.658,384.681-72.808,382.892-74.973,381.101 z M-88.706,383.987c33.96,4.768,69.662,12.264,106.222,22.612c41.317,11.696,79.803,26.083,114.592,42.12 c-1.519,0.885-3.011,1.831-4.441,2.839c-4.924-2.256-9.704-4.585-14.775-6.769c-29.602-12.739-61.77-24.196-95.861-33.846 c-10.575-2.994-21.087-5.708-31.542-8.226c-4.036-0.971-8.021-1.791-12.034-2.693c-6.313-1.418-12.607-2.807-18.853-4.052 c-4.618-0.921-9.178-1.745-13.756-2.571c-5.898-1.066-11.769-2.075-17.59-2.985c-1.918-0.3-3.821-0.587-5.726-0.873 C-84.452,387.651-86.576,385.822-88.706,383.987z M196.405,450.808c14.101,6.935,27.436,14.135,39.887,21.568 c-3.99-0.514-8.022-1.158-11.962-1.576c-4.778-2.755-9.91-5.395-14.921-8.082C205.693,458.148,201.321,454.12,196.405,450.808 z M218.531,478.393c0.526,0.321,1.103,0.627,1.625,0.946c-0.445-0.062-0.889-0.129-1.334-0.192 C218.728,478.894,218.63,478.644,218.531,478.393z"/> </g> </g> <g> <ellipse fill="#D9D9C3" cx="363.641" cy="499.289" rx="175.482" ry="30.25"/> </g> <g> <path fill="#D9D9C3" d="M509.999,460.508c0.611-1.371,1.004-2.88,1.004-4.489c0-5.977-4.706-10.818-10.512-10.818 c-0.701,0-1.396,0.101-2.06,0.236c-0.395-0.641-0.86-1.23-1.363-1.778c1.034-1.404,1.652-3.128,1.652-5.002 c0-3.099-1.755-5.7-4.254-7.178c0.497-1.073,0.813-2.258,0.813-3.516c0-4.682-3.819-8.474-8.529-8.474 c-0.568,0-1.131,0.079-1.669,0.184c-1.512-2.363-4.054-4.03-7.084-4.03c-3.496,0-6.479,2.11-7.797,5.101 c-0.357-0.046-0.707-0.103-1.078-0.103c-3.277,0-6.118,1.839-7.547,4.531c-0.596-0.164-1.214-0.279-1.864-0.279 c-0.462,0-0.922,0.064-1.359,0.149c-1.234-1.904-3.306-3.243-5.775-3.243c-2.851,0-5.282,1.697-6.356,4.104 c-0.293-0.038-0.576-0.083-0.88-0.083c-3.842,0-6.955,3.055-6.955,6.819c0,1.714,0.715,3.223,1.776,4.422 c-1.193,1.223-1.94,2.855-1.94,4.685c0,3.765,3.113,6.817,6.954,6.817c0.311,0,0.606-0.048,0.903-0.09 c-0.597,1.252-0.863,2.611-0.834,3.969c-2.1,0.227-4.105,1.192-5.562,2.933c-3.006,3.589-2.514,8.948,1.099,11.975 c0.858,0.719,1.814,1.22,2.816,1.55c-0.019,2.459,0.891,4.907,2.931,6.615c2.74,2.293,6.487,2.574,9.449,1.016 c0.513,1.16,1.21,2.251,2.247,3.12c3.612,3.022,8.975,2.567,11.979-1.021c0.012-0.015,0.021-0.028,0.031-0.041 c1.924,2.53,4.913,4.164,8.279,4.164c1.377,0,2.682-0.29,3.887-0.788c1.93,2.419,4.727,4.071,8.004,4.071 c4.401,0,8.171-2.797,9.733-6.751c1.401,0.714,2.923,1.21,4.593,1.21c5.806,0,10.513-4.842,10.513-10.819 C515.243,465.716,513.079,462.396,509.999,460.508z"/> </g> <g> <path fill="#FFFFFF" d="M98.115,453.597l8.752-23.325l16.752-7.835l45.925-0.932l5.257-0.716l18.77-3.543l6.674,6.579 l19.898-0.352c0,0,4.205-4.155,10.016-3.712c7.198,0.55,8.722,5.458,8.722,5.458s5.079-2.319,8.894,2.125 c2.985,3.476,2.279,11.343,2.279,11.343s4.333,4.649,7.555,4.045c3.46-0.653-1.198-6.052,2.917-8.977 c4.372-3.104,8.256-2.069,8.256-2.069s-0.213-5.171,6.167-7.262c3.852-1.261,9.824,1.411,9.824,1.411l12.031-18.953 l22.765,0.031l-0.352-40.877l24.004-56.994l26.74,54.057l-2.115,3.524l0.119,41.112l59.007,0.856l37.384,30.368L284.455,471.9 l-174.439,5.415l-33.005,6.89c0,0-13.248-12.08,0.404-26.125C84.88,450.401,98.115,453.597,98.115,453.597z"/> </g> <g> <path fill="#FFFFFF" d="M239.559,370.915c0,0,55.865,16.676,81.506,31.06l-13.966,2.813c0,0-65.664-25.535-68.582-27.829 L239.559,370.915z"/> </g> </g> </g> <g id="Layer_7_2_" clip-path="url(#SVGID_2_)"> <path fill="#99998A" d="M307.794,434.173c-3.264,0-6.049,1.969-7.278,4.763c-0.335-0.044-0.659-0.097-1.006-0.097 c-4.398,0-7.962,3.54-7.962,7.909c0,1.986,0.817,3.736,2.034,5.123c-1.367,1.422-2.224,3.315-2.224,5.433 c0,4.37,3.565,7.909,7.961,7.909c1.045,0,2.031-0.212,2.945-0.573c1.46,1.768,3.578,2.973,6.059,2.973 c3.335,0,6.188-2.042,7.374-4.933c1.062,0.522,2.213,0.882,3.476,0.882c4.397,0,7.963-3.537,7.963-7.908 c0-2.891-1.64-5.319-3.972-6.699c0.464-1.002,0.761-2.106,0.761-3.282c0-4.369-3.564-7.908-7.963-7.908 c-0.529,0-1.057,0.073-1.557,0.172C312.994,435.728,310.621,434.173,307.794,434.173z M307.608,438.071 c0.55-0.108,1.154-0.062,1.824,0.153c1.846,0.592,2.228,2.61,2.357,4.088c0.751-1.5,2.11-2.297,3.952-1.708 c2.685,0.863,2.526,5.683,2.526,5.683s-0.372-2.537-3.344-3.648c-1.365-0.508-2.34,0.365-3.002,1.154 c0,0.003,0.018,0.095,0.018,0.095s-0.037-0.071-0.037-0.076c-0.351,0.423-0.761,0.94-0.761,0.94 c0.028-0.721,0.176-1.363,0.38-1.938c-0.372-0.837-1.07-1.868-2.907-2.553c-2.115-0.79-3.779,2.109-3.779,2.109 C304.92,440.086,305.963,438.401,307.608,438.071z M299.686,442.639c0.399-0.073,0.809-0.062,1.216,0.041 c0.543,0.137,1.079,0.438,1.596,0.921c0.439,0.409,0.663,0.938,0.779,1.498c0.779-1.343,2.075-2.038,3.819-1.48 c2.143,0.688,2.371,3.381,2.412,4.646c0.719-1.658,2.168-2.539,4.105-1.919c2.684,0.861,2.507,5.683,2.507,5.683 s-0.37-2.538-3.345-3.648c-2.116-0.79-3.761,2.112-3.761,2.112c0.025-0.685,0.154-1.29,0.342-1.845 c-0.216-0.726-0.775-2.135-3.078-2.993c-1.389-0.52-2.365,0.378-3.021,1.169c-0.138,0.978-0.281,1.407-0.513,1.959 c0.774,0.336,1.438,0.909,1.806,1.958c0.104,0.297,0.136,0.59,0.133,0.883c2.323-1.376,4.672-1.026,5.548,1.479 c0.163,0.467,0.159,0.925,0.075,1.381c1.888-0.613,3.611-0.015,4.333,2.056c0.937,2.683-2.964,5.45-2.964,5.45 s1.771-1.81,0.854-4.876c-0.39-1.307-1.537-1.651-2.546-1.745c-0.812,1.759-2.716,3.165-2.716,3.165s1.769-1.809,0.854-4.874 c-0.562-1.884-2.775-1.813-3.458-1.768c-0.228,2.138-2.619,3.919-2.906,4.128c0.383,0.621,0.874,1.4,0.874,1.4 c-0.001,0-1.447-2.087-4.597-1.746c-2.244,0.243-2.452,3.57-2.452,3.57c-1.241-2.78-0.486-5.343,2.299-5.777 c1.831-0.285,3.042,1.229,3.837,2.496c0.254-0.286,1.558-1.867,0.724-4.666c-0.651-2.182-3.935-1.764-3.935-1.764 c1.378-0.972,2.78-1.251,3.935-0.904c0.005-0.919-0.208-2.145-1.559-3.53c-1.582-1.628-4.294,0.269-4.294,0.269 C297.368,443.843,298.487,442.861,299.686,442.639z M319.256,451.375c1.084,0.186,1.963,0.921,2.432,2.266 c0.937,2.684-2.965,5.432-2.965,5.432s1.771-1.809,0.856-4.875c-0.651-2.184-3.935-1.787-3.935-1.787 C316.883,451.539,318.172,451.188,319.256,451.375z"/> <path fill="#99998A" d="M279.245,428.357c-3.262,0-6.047,1.968-7.276,4.76c-0.336-0.043-0.66-0.096-1.007-0.096 c-4.397,0-7.961,3.54-7.961,7.908c0,1.988,0.817,3.738,2.034,5.128c-1.367,1.419-2.224,3.312-2.224,5.431 c0,4.369,3.564,7.908,7.961,7.908c1.043,0,2.031-0.211,2.945-0.575c1.46,1.77,3.578,2.976,6.061,2.976 c3.334,0,6.186-2.043,7.371-4.934c1.062,0.52,2.214,0.883,3.477,0.883c4.397,0,7.961-3.539,7.961-7.909 c0-2.892-1.639-5.319-3.97-6.7c0.461-1.001,0.759-2.104,0.759-3.28c0-4.37-3.563-7.91-7.961-7.91 c-0.53,0-1.057,0.075-1.559,0.173C284.445,429.912,282.073,428.357,279.245,428.357z M279.061,432.255 c0.549-0.108,1.152-0.062,1.824,0.155c1.846,0.591,2.227,2.608,2.355,4.089c0.752-1.503,2.111-2.301,3.952-1.711 c2.686,0.863,2.528,5.684,2.528,5.684s-0.371-2.538-3.343-3.648c-1.364-0.508-2.339,0.363-3.002,1.152 c-0.001,0.003,0.019,0.096,0.019,0.096s-0.037-0.072-0.038-0.076c-0.351,0.424-0.761,0.941-0.761,0.941 c0.027-0.72,0.176-1.365,0.38-1.939c-0.375-0.835-1.072-1.868-2.907-2.554c-2.116-0.789-3.781,2.112-3.781,2.112 C276.372,434.27,277.414,432.585,279.061,432.255z M271.138,436.823c0.399-0.073,0.81-0.063,1.216,0.04 c0.542,0.136,1.079,0.437,1.597,0.921c0.438,0.411,0.662,0.938,0.779,1.497c0.779-1.341,2.076-2.036,3.818-1.479 c2.143,0.687,2.372,3.379,2.414,4.645c0.717-1.658,2.168-2.538,4.104-1.918c2.686,0.862,2.507,5.683,2.507,5.683 s-0.371-2.538-3.343-3.648c-2.117-0.79-3.762,2.112-3.762,2.112c0.025-0.684,0.154-1.287,0.341-1.843 c-0.215-0.728-0.775-2.136-3.078-2.995c-1.389-0.519-2.365,0.378-3.021,1.171c-0.137,0.975-0.281,1.404-0.512,1.958 c0.774,0.337,1.438,0.908,1.805,1.958c0.103,0.296,0.137,0.589,0.133,0.882c2.323-1.375,4.673-1.027,5.547,1.479 c0.163,0.466,0.16,0.927,0.076,1.382c1.888-0.614,3.61-0.016,4.332,2.055c0.937,2.686-2.964,5.452-2.964,5.452 s1.77-1.812,0.856-4.878c-0.39-1.305-1.539-1.651-2.546-1.746c-0.812,1.759-2.718,3.168-2.718,3.168s1.771-1.809,0.855-4.877 c-0.562-1.882-2.775-1.812-3.458-1.765c-0.227,2.136-2.62,3.918-2.907,4.127c0.384,0.621,0.874,1.402,0.874,1.402 s-1.445-2.089-4.597-1.749c-2.242,0.243-2.451,3.57-2.451,3.57c-1.241-2.781-0.486-5.342,2.298-5.776 c1.832-0.286,3.044,1.227,3.838,2.495c0.252-0.285,1.557-1.867,0.722-4.664c-0.651-2.183-3.933-1.769-3.933-1.769 c1.377-0.969,2.779-1.247,3.933-0.9c0.005-0.921-0.207-2.146-1.557-3.532c-1.583-1.625-4.294,0.269-4.294,0.269 C268.821,438.026,269.94,437.045,271.138,436.823z M290.707,445.559c1.085,0.188,1.963,0.923,2.433,2.266 c0.938,2.684-2.964,5.432-2.964,5.432s1.769-1.809,0.855-4.876c-0.651-2.184-3.933-1.785-3.933-1.785 C288.336,445.722,289.624,445.372,290.707,445.559z"/> <path fill="#99998A" d="M92.874,472.441c-3.264,0-6.048,1.972-7.277,4.763c-0.334-0.043-0.66-0.098-1.007-0.098 c-4.396,0-7.96,3.541-7.96,7.91c0,1.986,0.815,3.737,2.033,5.126c-1.366,1.419-2.224,3.312-2.224,5.433 c0,4.369,3.565,7.909,7.962,7.909c1.045,0,2.031-0.213,2.945-0.577c1.459,1.771,3.578,2.975,6.06,2.975 c3.334,0,6.186-2.043,7.372-4.934c1.062,0.521,2.213,0.887,3.477,0.887c4.397,0,7.961-3.543,7.961-7.91 c0-2.894-1.637-5.32-3.972-6.699c0.463-1.005,0.761-2.108,0.761-3.284c0-4.367-3.564-7.906-7.961-7.906 c-0.53,0-1.057,0.072-1.559,0.169C98.073,473.997,95.702,472.441,92.874,472.441z M92.689,476.34 c0.55-0.108,1.153-0.06,1.824,0.155c1.845,0.592,2.228,2.608,2.356,4.089c0.752-1.501,2.109-2.3,3.951-1.708 c2.687,0.862,2.528,5.68,2.528,5.68s-0.371-2.534-3.344-3.646c-1.364-0.509-2.339,0.364-3.002,1.15 c0,0.006,0.019,0.098,0.019,0.098s-0.036-0.074-0.037-0.077c-0.352,0.423-0.761,0.939-0.761,0.939 c0.027-0.719,0.176-1.362,0.38-1.938c-0.375-0.835-1.072-1.867-2.906-2.554c-2.117-0.789-3.782,2.113-3.782,2.113 C89.999,478.354,91.043,476.67,92.689,476.34z M84.767,480.91c0.399-0.073,0.808-0.066,1.215,0.038 c0.542,0.137,1.079,0.438,1.597,0.921c0.438,0.412,0.662,0.939,0.778,1.497c0.78-1.34,2.077-2.036,3.819-1.477 c2.142,0.688,2.37,3.378,2.412,4.645c0.718-1.66,2.17-2.54,4.105-1.92c2.685,0.862,2.507,5.683,2.507,5.683 s-0.37-2.538-3.344-3.648c-2.114-0.789-3.761,2.112-3.761,2.112c0.026-0.683,0.155-1.287,0.342-1.842 c-0.214-0.726-0.776-2.136-3.078-2.995c-1.39-0.52-2.366,0.377-3.021,1.171c-0.138,0.978-0.282,1.405-0.513,1.958 c0.773,0.337,1.438,0.908,1.804,1.959c0.104,0.296,0.137,0.587,0.133,0.883c2.322-1.377,4.673-1.027,5.548,1.478 c0.163,0.469,0.16,0.926,0.076,1.381c1.888-0.611,3.61-0.012,4.332,2.056c0.937,2.685-2.964,5.452-2.964,5.452 s1.769-1.81,0.854-4.878c-0.389-1.306-1.538-1.649-2.546-1.746c-0.811,1.761-2.716,3.167-2.716,3.167s1.768-1.809,0.854-4.875 c-0.561-1.883-2.777-1.814-3.458-1.767c-0.228,2.136-2.62,3.92-2.908,4.128c0.384,0.622,0.875,1.401,0.875,1.401 s-1.445-2.088-4.597-1.746c-2.243,0.243-2.451,3.57-2.451,3.57c-1.24-2.781-0.486-5.345,2.298-5.779 c1.831-0.286,3.044,1.23,3.838,2.497c0.252-0.288,1.556-1.867,0.722-4.665c-0.651-2.184-3.932-1.767-3.932-1.767 c1.375-0.972,2.779-1.249,3.932-0.903c0.006-0.918-0.207-2.146-1.558-3.532c-1.583-1.624-4.293,0.269-4.293,0.269 C82.45,482.112,83.569,481.133,84.767,480.91z M104.336,489.644c1.084,0.188,1.964,0.924,2.432,2.266 c0.937,2.684-2.963,5.432-2.963,5.432s1.77-1.807,0.855-4.876c-0.651-2.181-3.933-1.783-3.933-1.783 C101.964,489.808,103.251,489.457,104.336,489.644z"/> <path fill="#99998A" d="M61.321,466.969c-3.263,0-6.047,1.968-7.277,4.759c-0.335-0.043-0.66-0.096-1.007-0.096 c-4.397,0-7.961,3.539-7.961,7.909c0,1.986,0.817,3.736,2.034,5.126c-1.367,1.42-2.223,3.312-2.223,5.432 c0,4.37,3.563,7.91,7.96,7.91c1.044,0,2.03-0.213,2.945-0.577c1.459,1.77,3.577,2.976,6.06,2.976 c3.334,0,6.187-2.045,7.373-4.934c1.061,0.521,2.213,0.883,3.477,0.883c4.396,0,7.961-3.54,7.961-7.909 c0-2.892-1.639-5.318-3.972-6.7c0.463-1.001,0.761-2.104,0.761-3.281c0-4.366-3.564-7.909-7.961-7.909 c-0.53,0-1.056,0.076-1.558,0.175C66.52,468.522,64.147,466.969,61.321,466.969z M61.135,470.865 c0.549-0.109,1.154-0.061,1.825,0.154c1.845,0.592,2.228,2.609,2.356,4.089c0.753-1.503,2.11-2.3,3.952-1.708 c2.686,0.86,2.528,5.683,2.528,5.683s-0.371-2.538-3.344-3.648c-1.364-0.509-2.339,0.362-3.002,1.151 c0,0.005,0.019,0.096,0.019,0.096s-0.037-0.073-0.037-0.075c-0.352,0.423-0.761,0.941-0.761,0.941 c0.027-0.722,0.176-1.367,0.38-1.94c-0.375-0.835-1.072-1.867-2.907-2.554c-2.115-0.789-3.78,2.112-3.78,2.112 C58.446,472.88,59.49,471.197,61.135,470.865z M53.213,475.435c0.399-0.073,0.809-0.063,1.216,0.038 c0.542,0.137,1.079,0.438,1.595,0.922c0.439,0.412,0.663,0.938,0.78,1.497c0.778-1.341,2.075-2.036,3.819-1.478 c2.142,0.688,2.37,3.378,2.412,4.646c0.717-1.658,2.169-2.541,4.104-1.918c2.685,0.86,2.507,5.68,2.507,5.68 s-0.37-2.538-3.343-3.646c-2.117-0.792-3.762,2.11-3.762,2.11c0.025-0.684,0.156-1.288,0.343-1.842 c-0.216-0.727-0.776-2.136-3.08-2.993c-1.388-0.521-2.364,0.374-3.021,1.169c-0.137,0.976-0.281,1.403-0.511,1.958 c0.773,0.337,1.438,0.908,1.804,1.958c0.104,0.296,0.137,0.587,0.134,0.883c2.324-1.376,4.673-1.027,5.547,1.479 c0.163,0.468,0.162,0.926,0.077,1.381c1.888-0.612,3.61-0.016,4.332,2.055c0.938,2.685-2.964,5.453-2.964,5.453 s1.769-1.81,0.854-4.876c-0.39-1.309-1.537-1.652-2.546-1.749c-0.811,1.762-2.716,3.168-2.716,3.168s1.769-1.809,0.854-4.876 c-0.561-1.882-2.777-1.812-3.457-1.766c-0.229,2.136-2.62,3.919-2.908,4.126c0.384,0.623,0.874,1.402,0.874,1.402 s-1.446-2.087-4.597-1.746c-2.244,0.243-2.452,3.571-2.452,3.571c-1.24-2.781-0.485-5.345,2.299-5.779 c1.831-0.286,3.044,1.229,3.838,2.497c0.252-0.286,1.556-1.867,0.722-4.665c-0.651-2.184-3.933-1.767-3.933-1.767 c1.376-0.972,2.778-1.25,3.933-0.903c0.006-0.919-0.207-2.144-1.557-3.532c-1.583-1.624-4.295,0.271-4.295,0.271 C50.895,476.636,52.014,475.657,53.213,475.435z M72.782,484.169c1.084,0.187,1.963,0.924,2.433,2.265 c0.937,2.687-2.965,5.435-2.965,5.435s1.77-1.812,0.855-4.876c-0.652-2.184-3.934-1.786-3.934-1.786 C70.41,484.333,71.698,483.982,72.782,484.169z"/> <path fill="#808073" d="M488.821,440.992c-4.022,0-7.452,2.513-8.968,6.077c-0.413-0.053-0.814-0.121-1.241-0.121 c-5.42,0-9.812,4.521-9.812,10.098c0,2.535,1.006,4.77,2.504,6.543c-1.682,1.813-2.739,4.23-2.739,6.938 c0,5.579,4.394,10.099,9.813,10.099c1.285,0,2.504-0.271,3.628-0.737c1.801,2.26,4.411,3.801,7.47,3.801 c4.109,0,7.626-2.611,9.086-6.3c1.309,0.664,2.728,1.128,4.286,1.128c5.418,0,9.812-4.52,9.812-10.099 c0-3.693-2.02-6.792-4.894-8.554c0.57-1.28,0.936-2.689,0.936-4.191c0-5.577-4.393-10.096-9.811-10.096 c-0.653,0-1.303,0.093-1.922,0.22C495.229,442.978,492.306,440.992,488.821,440.992z M488.593,445.969 c0.677-0.14,1.421-0.078,2.248,0.196c2.274,0.755,2.746,3.332,2.903,5.221c0.927-1.918,2.603-2.936,4.871-2.181 c3.31,1.1,3.114,7.254,3.114,7.254s-0.457-3.239-4.12-4.656c-1.682-0.65-2.883,0.464-3.701,1.471 c0,0.004,0.024,0.121,0.024,0.121s-0.047-0.094-0.048-0.097c-0.432,0.54-0.936,1.2-0.936,1.2 c0.032-0.919,0.216-1.741,0.468-2.475c-0.462-1.067-1.322-2.386-3.583-3.261c-2.606-1.007-4.659,2.696-4.659,2.696 C485.278,448.539,486.565,446.389,488.593,445.969z M478.827,451.803c0.492-0.095,0.998-0.081,1.499,0.049 c0.67,0.174,1.33,0.559,1.968,1.177c0.542,0.524,0.816,1.196,0.96,1.911c0.961-1.714,2.559-2.6,4.706-1.888 c2.643,0.877,2.923,4.315,2.975,5.932c0.885-2.117,2.673-3.243,5.058-2.45c3.311,1.1,3.092,7.253,3.092,7.253 s-0.456-3.238-4.121-4.655c-2.609-1.009-4.637,2.697-4.637,2.697c0.03-0.873,0.191-1.648,0.421-2.354 c-0.266-0.929-0.955-2.728-3.794-3.824c-1.712-0.661-2.914,0.482-3.723,1.495c-0.169,1.245-0.348,1.795-0.632,2.499 c0.953,0.43,1.773,1.161,2.225,2.502c0.127,0.378,0.167,0.749,0.164,1.126c2.862-1.756,5.76-1.311,6.837,1.888 c0.201,0.597,0.196,1.184,0.095,1.766c2.325-0.784,4.448-0.021,5.339,2.622c1.154,3.428-3.653,6.96-3.653,6.96 s2.181-2.311,1.055-6.225c-0.481-1.67-1.898-2.109-3.139-2.231c-1.001,2.247-3.349,4.046-3.349,4.046s2.181-2.311,1.054-6.227 c-0.691-2.404-3.423-2.315-4.262-2.255c-0.281,2.728-3.229,5.002-3.582,5.271c0.472,0.792,1.077,1.789,1.077,1.789 s-1.782-2.667-5.668-2.231c-2.765,0.311-3.021,4.559-3.021,4.559c-1.529-3.552-0.599-6.821,2.834-7.378 c2.256-0.364,3.75,1.569,4.729,3.188c0.312-0.364,1.919-2.386,0.89-5.956c-0.8-2.788-4.847-2.257-4.847-2.257 c1.695-1.237,3.424-1.595,4.847-1.151c0.009-1.174-0.255-2.738-1.919-4.51c-1.95-2.073-5.293,0.343-5.293,0.343 C475.973,453.336,477.352,452.087,478.827,451.803z M502.948,462.956c1.337,0.237,2.418,1.177,2.996,2.89 c1.155,3.428-3.651,6.938-3.651,6.938s2.18-2.31,1.052-6.227c-0.802-2.786-4.847-2.276-4.847-2.276 C500.025,463.164,501.611,462.716,502.948,462.956z"/> <path fill="#99998A" d="M251.656,444.724c-3.263,0-6.047,1.969-7.276,4.759c-0.334-0.042-0.661-0.096-1.007-0.096 c-4.396,0-7.96,3.54-7.96,7.909c0,1.987,0.817,3.737,2.033,5.126c-1.366,1.42-2.223,3.312-2.223,5.433 c0,4.369,3.564,7.909,7.96,7.909c1.044,0,2.031-0.213,2.945-0.577c1.461,1.771,3.579,2.976,6.061,2.976 c3.335,0,6.187-2.045,7.372-4.934c1.062,0.521,2.214,0.883,3.478,0.883c4.396,0,7.96-3.539,7.96-7.909 c0-2.892-1.637-5.318-3.971-6.696c0.464-1.005,0.76-2.108,0.76-3.284c0-4.367-3.564-7.909-7.96-7.909 c-0.53,0-1.056,0.075-1.559,0.174C256.856,446.278,254.484,444.724,251.656,444.724z M251.471,448.621 c0.548-0.109,1.153-0.062,1.824,0.153c1.845,0.592,2.228,2.609,2.356,4.089c0.752-1.501,2.11-2.299,3.952-1.707 c2.685,0.859,2.526,5.682,2.526,5.682s-0.37-2.538-3.344-3.648c-1.363-0.509-2.339,0.363-3.002,1.152 c0,0.004,0.02,0.097,0.02,0.097s-0.038-0.075-0.039-0.077c-0.352,0.423-0.76,0.941-0.76,0.941 c0.026-0.72,0.176-1.364,0.381-1.939c-0.376-0.836-1.073-1.868-2.908-2.552c-2.116-0.792-3.78,2.11-3.78,2.11 C248.781,450.635,249.825,448.952,251.471,448.621z M243.549,453.189c0.399-0.073,0.809-0.063,1.215,0.04 c0.542,0.135,1.08,0.438,1.597,0.921c0.44,0.411,0.662,0.937,0.778,1.496c0.78-1.342,2.077-2.035,3.819-1.478 c2.143,0.688,2.372,3.38,2.413,4.646c0.716-1.66,2.168-2.54,4.103-1.92c2.687,0.862,2.509,5.683,2.509,5.683 s-0.371-2.538-3.344-3.646c-2.116-0.792-3.762,2.11-3.762,2.11c0.026-0.684,0.157-1.287,0.342-1.842 c-0.214-0.729-0.776-2.136-3.078-2.996c-1.39-0.518-2.365,0.379-3.021,1.172c-0.138,0.976-0.281,1.405-0.513,1.958 c0.774,0.337,1.439,0.908,1.805,1.958c0.104,0.296,0.136,0.587,0.133,0.883c2.323-1.376,4.674-1.027,5.548,1.479 c0.163,0.467,0.161,0.926,0.076,1.381c1.888-0.612,3.61-0.016,4.332,2.055c0.938,2.684-2.964,5.452-2.964,5.452 s1.77-1.809,0.856-4.875c-0.39-1.309-1.539-1.653-2.547-1.749c-0.811,1.761-2.717,3.168-2.717,3.168s1.771-1.809,0.855-4.876 c-0.561-1.882-2.775-1.811-3.458-1.766c-0.228,2.136-2.62,3.919-2.908,4.127c0.384,0.622,0.875,1.402,0.875,1.402 s-1.447-2.088-4.599-1.746c-2.243,0.242-2.451,3.57-2.451,3.57c-1.24-2.784-0.486-5.345,2.299-5.779 c1.832-0.286,3.043,1.229,3.838,2.495c0.251-0.284,1.557-1.865,0.722-4.663c-0.65-2.184-3.933-1.767-3.933-1.767 c1.376-0.972,2.778-1.25,3.933-0.901c0.005-0.921-0.207-2.147-1.558-3.534c-1.582-1.624-4.294,0.271-4.294,0.271 C241.232,454.392,242.351,453.411,243.549,453.189z M263.118,461.924c1.084,0.188,1.963,0.924,2.432,2.264 c0.938,2.688-2.964,5.436-2.964,5.436s1.77-1.812,0.855-4.878c-0.651-2.182-3.933-1.784-3.933-1.784 C260.746,462.088,262.034,461.737,263.118,461.924z"/> <path fill="#99998A" d="M230.615,423.983c-3.264,0-6.047,1.969-7.277,4.76c-0.335-0.043-0.66-0.096-1.007-0.096 c-4.396,0-7.96,3.539-7.96,7.909c0,1.985,0.817,3.737,2.033,5.126c-1.365,1.42-2.223,3.312-2.223,5.431 c0,4.37,3.564,7.909,7.962,7.909c1.044,0,2.031-0.211,2.944-0.575c1.46,1.769,3.579,2.976,6.06,2.976 c3.335,0,6.187-2.045,7.373-4.934c1.062,0.52,2.214,0.883,3.477,0.883c4.397,0,7.96-3.54,7.96-7.909 c0-2.893-1.638-5.32-3.971-6.699c0.463-1.002,0.76-2.105,0.76-3.283c0-4.367-3.565-7.909-7.96-7.909 c-0.531,0-1.057,0.075-1.559,0.174C235.815,425.538,233.443,423.983,230.615,423.983z M230.431,427.881 c0.548-0.109,1.151-0.062,1.823,0.154c1.846,0.592,2.228,2.609,2.357,4.088c0.751-1.501,2.109-2.3,3.951-1.709 c2.687,0.862,2.527,5.684,2.527,5.684s-0.37-2.538-3.344-3.647c-1.363-0.509-2.337,0.362-3.001,1.151 c0,0.002,0.019,0.096,0.019,0.096s-0.037-0.073-0.037-0.077c-0.352,0.425-0.761,0.941-0.761,0.941 c0.027-0.72,0.176-1.365,0.38-1.939c-0.375-0.835-1.073-1.868-2.907-2.553c-2.117-0.789-3.781,2.113-3.781,2.113 C227.741,429.895,228.784,428.209,230.431,427.881z M222.508,432.45c0.399-0.073,0.809-0.064,1.216,0.037 c0.542,0.138,1.08,0.438,1.596,0.922c0.44,0.413,0.662,0.938,0.78,1.498c0.78-1.343,2.075-2.037,3.818-1.479 c2.143,0.687,2.371,3.378,2.413,4.646c0.717-1.66,2.168-2.541,4.104-1.921c2.686,0.863,2.508,5.683,2.508,5.683 s-0.37-2.538-3.344-3.646c-2.116-0.791-3.761,2.11-3.761,2.11c0.025-0.683,0.155-1.288,0.341-1.843 c-0.214-0.727-0.775-2.134-3.076-2.994c-1.391-0.519-2.367,0.376-3.022,1.172c-0.138,0.974-0.282,1.403-0.513,1.958 c0.773,0.337,1.439,0.908,1.805,1.957c0.104,0.297,0.136,0.588,0.133,0.882c2.322-1.374,4.673-1.027,5.548,1.479 c0.163,0.466,0.16,0.927,0.075,1.382c1.888-0.614,3.61-0.016,4.332,2.054c0.938,2.685-2.963,5.451-2.963,5.451 s1.77-1.809,0.855-4.876c-0.39-1.306-1.539-1.65-2.546-1.746c-0.813,1.761-2.717,3.168-2.717,3.168s1.769-1.81,0.854-4.876 c-0.561-1.883-2.776-1.812-3.457-1.766c-0.229,2.136-2.62,3.918-2.907,4.126c0.383,0.623,0.874,1.402,0.874,1.402 s-1.446-2.088-4.598-1.748c-2.244,0.243-2.451,3.571-2.451,3.571c-1.241-2.782-0.487-5.343,2.298-5.777 c1.832-0.286,3.043,1.227,3.838,2.493c0.252-0.283,1.557-1.864,0.723-4.664c-0.651-2.182-3.934-1.766-3.934-1.766 c1.376-0.97,2.779-1.249,3.934-0.901c0.005-0.921-0.208-2.145-1.559-3.532c-1.582-1.624-4.293,0.269-4.293,0.269 C220.19,433.652,221.31,432.672,222.508,432.45z M242.078,441.185c1.084,0.187,1.963,0.922,2.431,2.264 c0.938,2.686-2.962,5.434-2.962,5.434s1.768-1.811,0.854-4.877c-0.651-2.181-3.934-1.784-3.934-1.784 C239.705,441.349,240.992,440.996,242.078,441.185z"/> <path fill="#808073" d="M454.169,423.734c-2.66,0-4.93,1.583-5.932,3.83c-0.273-0.036-0.539-0.077-0.821-0.077 c-3.585,0-6.491,2.851-6.491,6.364c0,1.6,0.667,3.009,1.658,4.127c-1.114,1.142-1.812,2.666-1.812,4.371 c0,3.516,2.906,6.365,6.491,6.365c0.85,0,1.655-0.171,2.399-0.464c1.191,1.425,2.919,2.396,4.943,2.396 c2.718,0,5.043-1.646,6.009-3.972c0.865,0.42,1.806,0.711,2.835,0.711c3.586,0,6.491-2.848,6.491-6.365 c-0.001-2.328-1.336-4.282-3.237-5.392c0.377-0.809,0.618-1.695,0.618-2.642c0-3.515-2.905-6.365-6.49-6.365 c-0.432,0-0.86,0.06-1.269,0.139C458.409,424.983,456.476,423.734,454.169,423.734z M454.597,425.982 c0.447-0.087,0.939-0.051,1.487,0.125c1.506,0.476,1.815,2.099,1.923,3.29c0.611-1.207,1.719-1.851,3.221-1.375 c2.189,0.693,2.06,4.573,2.06,4.573s-0.302-2.044-2.726-2.936c-1.111-0.41-1.908,0.293-2.449,0.927 c0,0.004,0.017,0.077,0.017,0.077s-0.03-0.059-0.03-0.061c-0.287,0.339-0.621,0.756-0.621,0.756 c0.021-0.578,0.145-1.097,0.311-1.561c-0.307-0.674-0.874-1.503-2.369-2.055c-1.726-0.635-3.083,1.699-3.083,1.699 C452.405,427.604,453.256,426.248,454.597,425.982z M448.138,429.66c0.325-0.06,0.66-0.051,0.992,0.03 c0.441,0.11,0.879,0.353,1.301,0.741c0.358,0.331,0.539,0.756,0.635,1.207c0.636-1.081,1.693-1.64,3.114-1.19 c1.746,0.552,1.933,2.72,1.967,3.737c0.584-1.333,1.768-2.044,3.347-1.545c2.189,0.695,2.043,4.573,2.043,4.573 s-0.302-2.041-2.728-2.935c-1.724-0.635-3.064,1.701-3.064,1.701c0.021-0.553,0.127-1.037,0.278-1.484 c-0.176-0.586-0.633-1.72-2.51-2.41c-1.132-0.418-1.929,0.304-2.462,0.94c-0.112,0.786-0.229,1.132-0.419,1.578 c0.631,0.271,1.173,0.73,1.471,1.575c0.085,0.237,0.111,0.473,0.109,0.711c1.893-1.108,3.809-0.828,4.522,1.189 c0.133,0.377,0.131,0.746,0.062,1.112c1.539-0.493,2.942-0.012,3.533,1.653c0.763,2.16-2.417,4.388-2.417,4.388 s1.442-1.456,0.696-3.924c-0.317-1.052-1.255-1.33-2.076-1.405c-0.661,1.415-2.215,2.548-2.215,2.548s1.442-1.456,0.697-3.924 c-0.459-1.517-2.264-1.458-2.819-1.422c-0.186,1.72-2.135,3.154-2.37,3.322c0.312,0.5,0.712,1.127,0.712,1.127 s-1.179-1.679-3.749-1.406c-1.827,0.195-1.996,2.875-1.996,2.875c-1.013-2.238-0.396-4.301,1.873-4.651 c1.493-0.229,2.48,0.989,3.13,2.009c0.205-0.229,1.269-1.503,0.588-3.755c-0.53-1.756-3.206-1.421-3.206-1.421 c1.123-0.779,2.264-1.005,3.206-0.727c0.004-0.739-0.168-1.726-1.27-2.841c-1.291-1.309-3.501,0.215-3.501,0.215 C446.248,430.626,447.16,429.84,448.138,429.66z M464.093,436.69c0.885,0.149,1.601,0.741,1.983,1.822 c0.764,2.16-2.416,4.371-2.416,4.371s1.441-1.454,0.696-3.924c-0.531-1.756-3.207-1.436-3.207-1.436 C462.159,436.822,463.209,436.538,464.093,436.69z"/> <path fill="#808073" d="M477.897,417.987c-3.263,0-6.046,1.971-7.276,4.762c-0.334-0.043-0.66-0.096-1.007-0.096 c-4.396,0-7.96,3.54-7.96,7.908c0,1.986,0.816,3.736,2.031,5.126c-1.365,1.421-2.222,3.313-2.222,5.433 c0,4.369,3.563,7.907,7.961,7.907c1.044,0,2.031-0.212,2.945-0.576c1.459,1.771,3.578,2.978,6.061,2.978 c3.333,0,6.187-2.044,7.371-4.934c1.062,0.521,2.215,0.883,3.477,0.883c4.397,0,7.961-3.539,7.961-7.908 c0-2.895-1.637-5.322-3.971-6.701c0.464-1.003,0.761-2.106,0.761-3.281c0-4.37-3.565-7.909-7.962-7.909 c-0.53,0-1.057,0.073-1.557,0.173C483.098,419.543,480.726,417.987,477.897,417.987z M478.421,420.784 c0.55-0.11,1.153-0.061,1.823,0.153c1.846,0.593,2.229,2.609,2.357,4.09c0.751-1.503,2.11-2.301,3.952-1.71 c2.686,0.861,2.526,5.684,2.526,5.684s-0.371-2.537-3.344-3.647c-1.363-0.509-2.34,0.362-3.002,1.151 c0,0.003,0.021,0.096,0.021,0.096s-0.038-0.073-0.04-0.076c-0.351,0.422-0.76,0.94-0.76,0.94 c0.027-0.721,0.176-1.365,0.379-1.939c-0.373-0.835-1.07-1.869-2.905-2.553c-2.118-0.789-3.781,2.111-3.781,2.111 C475.733,422.798,476.776,421.112,478.421,420.784z M470.5,425.354c0.398-0.074,0.808-0.066,1.215,0.037 c0.543,0.137,1.08,0.438,1.596,0.921c0.44,0.412,0.662,0.939,0.779,1.499c0.78-1.343,2.076-2.038,3.818-1.479 c2.144,0.688,2.371,3.378,2.412,4.645c0.718-1.658,2.17-2.541,4.104-1.919c2.686,0.861,2.509,5.682,2.509,5.682 s-0.371-2.537-3.344-3.646c-2.117-0.792-3.763,2.11-3.763,2.11c0.025-0.683,0.156-1.288,0.343-1.843 c-0.216-0.727-0.776-2.134-3.078-2.995c-1.389-0.519-2.365,0.377-3.021,1.171c-0.14,0.975-0.282,1.405-0.514,1.959 c0.774,0.336,1.438,0.909,1.805,1.957c0.104,0.298,0.138,0.588,0.133,0.884c2.323-1.376,4.675-1.029,5.549,1.479 c0.162,0.466,0.16,0.924,0.076,1.382c1.888-0.614,3.609-0.016,4.332,2.054c0.937,2.685-2.965,5.45-2.965,5.45 s1.77-1.809,0.854-4.876c-0.39-1.306-1.537-1.649-2.546-1.745c-0.812,1.76-2.717,3.168-2.717,3.168s1.77-1.81,0.854-4.876 c-0.561-1.883-2.775-1.813-3.457-1.766c-0.229,2.135-2.62,3.918-2.906,4.126c0.383,0.622,0.873,1.401,0.873,1.401 s-1.445-2.089-4.599-1.747c-2.242,0.243-2.45,3.571-2.45,3.571c-1.24-2.783-0.485-5.344,2.299-5.778 c1.832-0.286,3.044,1.229,3.838,2.494c0.252-0.282,1.557-1.866,0.723-4.664c-0.65-2.183-3.934-1.766-3.934-1.766 c1.377-0.97,2.779-1.249,3.934-0.901c0.005-0.921-0.207-2.146-1.559-3.532c-1.582-1.625-4.294,0.268-4.294,0.268 C468.183,426.555,469.301,425.575,470.5,425.354z M490.069,434.088c1.084,0.187,1.963,0.921,2.432,2.264 c0.937,2.685-2.964,5.434-2.964,5.434s1.77-1.811,0.854-4.877c-0.65-2.182-3.933-1.785-3.933-1.785 C487.696,434.252,488.985,433.899,490.069,434.088z"/> <path fill="#808073" d="M469.585,447.89c-2.501-2.095-5.9-2.373-8.636-1.022c-0.229-0.248-0.443-0.497-0.71-0.722 c-3.371-2.82-8.375-2.396-11.182,0.954c-1.274,1.523-1.772,3.39-1.731,5.235c-1.96,0.211-3.831,1.112-5.191,2.737 c-2.805,3.35-2.347,8.353,1.024,11.176c0.802,0.671,1.694,1.139,2.629,1.447c-0.017,2.295,0.832,4.58,2.735,6.173 c2.558,2.142,6.055,2.404,8.819,0.949c0.48,1.083,1.13,2.101,2.099,2.912c3.37,2.821,8.376,2.396,11.181-0.953 c1.858-2.22,2.16-5.132,1.258-7.688c0.999-0.471,1.936-1.126,2.689-2.026c2.805-3.353,2.346-8.354-1.025-11.176 c-0.406-0.34-0.857-0.621-1.305-0.868C472.573,452.42,471.753,449.705,469.585,447.89z M466.942,450.758 c0.49,0.269,0.924,0.694,1.299,1.291c1.035,1.638,0.034,3.431-0.818,4.646c1.541-0.669,3.094-0.408,4.127,1.229 c1.507,2.383-1.711,5.979-1.711,5.979s1.345-2.184-0.223-4.944c-0.719-1.265-2.025-1.223-3.04-1.044 c-0.002,0.002-0.048,0.086-0.048,0.086s0.018-0.08,0.021-0.084c-0.542,0.099-1.188,0.233-1.188,0.233 c0.484-0.534,1.012-0.932,1.537-1.243c0.25-0.88,0.377-2.12-0.589-3.823c-1.117-1.963-4.256-0.807-4.256-0.807 C463.587,450.576,465.468,449.955,466.942,450.758z M457.934,449.177c0.354,0.199,0.661,0.469,0.907,0.811 c0.327,0.451,0.546,1.026,0.633,1.73c0.072,0.597-0.095,1.143-0.364,1.646c1.46-0.529,2.897-0.229,3.876,1.318 c1.203,1.902-0.351,4.114-1.132,5.11c1.613-0.81,3.294-0.554,4.379,1.164c1.506,2.386-1.726,5.967-1.726,5.967 s1.345-2.184-0.222-4.941c-1.115-1.967-4.24-0.798-4.24-0.798c0.459-0.509,0.946-0.888,1.446-1.194 c0.3-0.695,0.775-2.135-0.438-4.271c-0.733-1.29-2.055-1.23-3.069-1.042c-0.732,0.658-1.118,0.896-1.647,1.171 c0.375,0.756,0.519,1.621,0.124,2.659c-0.111,0.296-0.272,0.539-0.464,0.765c2.663,0.435,4.242,2.211,3.304,4.693 c-0.176,0.463-0.472,0.814-0.829,1.11c1.841,0.739,2.777,2.305,2.003,4.354c-1.005,2.659-5.771,2.276-5.771,2.276 s2.518-0.25,3.785-3.189c0.54-1.253-0.119-2.252-0.831-2.973c-1.753,0.826-4.117,0.683-4.117,0.683s2.519-0.25,3.786-3.188 c0.778-1.804-0.965-3.172-1.518-3.574c-1.545,1.492-4.522,1.322-4.877,1.3c-0.105,0.721-0.23,1.635-0.23,1.635 s0.233-2.529-2.403-4.292c-1.876-1.254-4.172,1.165-4.172,1.165c0.836-2.93,3.059-4.409,5.473-2.955 c1.588,0.956,1.545,2.897,1.341,4.377c0.375-0.056,2.391-0.431,3.548-3.112c0.902-2.092-1.882-3.878-1.882-3.878 c1.679,0.139,2.933,0.823,3.595,1.831c0.596-0.701,1.217-1.776,1.073-3.707c-0.169-2.262-3.465-2.552-3.465-2.552 C455.386,448.609,456.871,448.577,457.934,449.177z M467.33,468.437c0.711,0.841,0.911,1.969,0.409,3.297 c-1.006,2.659-5.76,2.264-5.76,2.264s2.518-0.252,3.786-3.19c0.902-2.089-1.87-3.893-1.87-3.893 C465.406,467.04,466.618,467.597,467.33,468.437z"/> </g> <g id="Layer_4_2_" clip-path="url(#SVGID_2_)"> <path fill="#E6E5CF" d="M306.534,413.424l-5.689-3.793l-16.062,24.203l3.235,0.894l-1.227,29.445l71.161,1.115l3.346,18.739 l0.447,6.247l18.291-0.224l-1.896-55.546l-13.161-15.17l0.334-56.661l-38.593,0.111l-1.226,47.068L306.534,413.424z"/> <path fill="#E6E5CF" d="M363.305,412.866l3.569,0.222l57.89-0.109l29.893,22.976v52.534l-75.399-0.223l-1.116-51.866 l-19.185-17.956L363.305,412.866z"/> <path fill="#E6E5CF" d="M162.153,475.569l1.363,51.22l69.508-2.839l-0.649-53.608L193.1,420.778l-1.996,1.675l-16.799,3.029 l-11.245,14.311l-21.01,27.485l0.112,6.699l3.067,32.938l6.355-11.773L162.153,475.569z"/> <path fill="#8C8C7E" d="M198.298,427.203l18.938,1.231l31.005,38.163l-0.454,23.168l0.299,5.217l-15.555-0.189l-1.012-25.215 L198.298,427.203z"/> <path fill="#4D4D45" d="M323.015,368.099l-2.014-0.417l22.427-49.528l-15.092,44.944L323.015,368.099z"/> <path fill="#B5B5A3" d="M269.892,482.028l0.564,21.913l89.363-0.445l-0.122-19.223L269.892,482.028z"/> <path fill="#4D4D45" d="M266.27,464.357l-2.788,19.521l0.134,16.99l7.353,3.448l-0.221-19.763L266.27,464.357z"/> <path fill="#808073" d="M194.7,427.517l-2.498,0.169l-0.22,0.412l3.495,0.438L194.7,427.517z M196.836,430.379l-6.236,0.389 l-0.242,0.46l7.521,0.607L196.836,430.379z M198.97,433.29l-10.019,0.681l-0.122,0.243l11.355,0.726L198.97,433.29z M201.156,436.276l-13.831,0.946l15.14,0.822L201.156,436.276z M203.314,439.211l-17.59,0.97l-0.098,0.171l19.071,0.728 L203.314,439.211z M205.474,442.172l-21.4,1.188L184,443.48l23.147,0.971L205.474,442.172z M207.925,445.494l-25.622,1.263 l-0.073,0.12l27.514,1.067L207.925,445.494z M210.448,448.891l-29.867,1.189l-0.025,0.073l31.663,1.188L210.448,448.891z M212.874,452.216l-34.064,1.311l-0.097,0.169l36.127,1.189L212.874,452.216z M215.397,455.637l-38.432,1.432l-0.049,0.048 l40.955,1.334l-1.698-1.746L215.397,455.637z M218.575,459.179l-44.302,1.576l-0.194,0.243l47.797,1.576L218.575,459.179z M222.457,463.207l-50.927,1.285l-0.122,0.147l53.717,1.31L222.457,463.207z M225.684,466.506l-55.949,1.698l25.426,0.751 l32.415-0.483L225.684,466.506z"/> <path fill="#B3B3A1" d="M182.856,425.307l-59.236,1.099l-12.617,5.427l-9.347,32.662l3.541,0.38l9.694,4.248l24.721,0.999 L182.856,425.307z"/> <g> <path fill="#C19153" fill-opacity="0.9946" d="M119.084,440.509l-3.883-5.069"/> </g> <path fill="#808073" d="M105.196,464.874l1.346,39.235c0,0,6.118,6.328,9.264,6.662c3.146,0.33,9.044,0.053,9.044,0.053 l16.615,0.617l-0.725-42.048l-22.762-0.728l-4.858-34.67L105.196,464.874z"/> <polygon fill="#4D4D45" points="106.827,466.84 105.196,464.874 106.319,500.068 116.237,506.427 116.237,468.279 "/> <path fill="#8C8C7E" d="M161.949,470.393l70.879-0.578l-3.913,4.515l-67.03,0.81L161.949,470.393z"/> </g> <g id="Layer_5_2_" clip-path="url(#SVGID_2_)"> <path fill="#C7C7B3" d="M349.026,401.985l-15.221,26.714l0.33,35.896l23.908,0.108l1.66,27.719l19.828-0.011l-1.304-60.366 L349.026,401.985z"/> <path fill="#4D4D45" d="M349.053,399.813l31.178,35.221l-47.812,0.189L349.053,399.813z"/> <path fill="#4D4D45" d="M231.148,468.575l18.367,0.104l-1.757,3.803l-16.458-0.202L231.148,468.575z"/> <path fill="#4D4D45" d="M380.996,485.373h39.444v2.155h-39.444V485.373z"/> <path fill="#8C8C7E" d="M162.439,475.951l-0.03,2.766l66.524-0.678v-2.827L162.439,475.951z"/> <path fill="#8C8C7E" d="M163.626,506.966l-0.03,2.763l66.526-0.676v-2.826L163.626,506.966z"/> </g> <g id="Layer_3_2_" clip-path="url(#SVGID_2_)"> <path fill="#808073" d="M266.236,463.897l92.12,0.068l4.278,20.849l-92.745-0.529L266.236,463.897z"/> <path fill="#4D4D45" d="M349.22,399.977l1.514,2.319l-17.131,30.89l-7.223-0.103L349.22,399.977z"/> <path fill="#4D4D45" d="M299.722,409.231l24.844-0.081l2.695,23.783l-42.637,0.048L299.722,409.231z"/> <path fill="#68685E" d="M176.185,423.843l16.686-2.934l-16.866,33.786l-12.99,15.604l-22.971-0.342l18.295-19.221 L176.185,423.843z"/> <path fill="#4D4D45" d="M203.686,479.456l11.183-0.068l-0.185,18.489l-11.213-0.129L203.686,479.456z"/> <path fill="#4D4D45" d="M175.998,480.002l11.185-0.071l-0.187,18.493l-11.212-0.126L175.998,480.002z"/> <path fill="#4D4D45" d="M175.998,480.002l11.185-0.071l-0.187,18.493l-11.212-0.126L175.998,480.002z"/> <path fill="#4D4D45" d="M124.896,476.968l6.869-0.07l-0.113,18.694l-6.888-0.131L124.896,476.968z"/> <path fill="#4D4D45" d="M280.88,488.311l6.463-0.04l-0.107,10.392l-6.48-0.071L280.88,488.311z"/> <path fill="#4D4D45" d="M291.982,488.528l6.462-0.04l-0.107,10.391l-6.479-0.071L291.982,488.528z"/> <path fill="#4D4D45" d="M333.11,488.47l6.462-0.04l-0.108,10.392l-6.478-0.071L333.11,488.47z"/> <path fill="#4D4D45" d="M324.194,488.47l6.463-0.04l-0.108,10.392l-6.479-0.071L324.194,488.47z"/> <path fill="#4D4D45" d="M326.666,363.943l-4.081,4.213l-0.265,40.69l4.971,23.687L326.666,363.943z"/> <path fill="#4D4D45" d="M353.06,444.614l-0.11,13.709l7.034,0.173l0.122-13.261c0,0,0.239-3.179-3.146-3.312 C353.578,441.786,353.06,444.614,353.06,444.614z"/> <path fill="#4D4D45" d="M429.94,444.577l-0.09,11.282l5.747,0.142l0.1-10.913c0,0,0.196-2.614-2.566-2.725 C430.364,442.252,429.94,444.577,429.94,444.577z"/> <path fill="#4D4D45" d="M430.316,467.642l-0.09,11.282l5.747,0.142l0.1-10.912c0,0,0.194-2.617-2.569-2.725 C430.74,465.317,430.316,467.642,430.316,467.642z"/> <path fill="#4D4D45" d="M430.316,468.265l-0.09,14.441l5.747,0.183l0.1-13.969c0,0,0.194-3.35-2.569-3.491 C430.74,465.286,430.316,468.265,430.316,468.265z"/> <path fill="#4D4D45" d="M408.154,443.942l-0.092,11.281l5.75,0.143l0.098-10.912c0,0,0.196-2.615-2.566-2.727 C408.577,441.617,408.154,443.942,408.154,443.942z"/> <path fill="#4D4D45" d="M335.925,373.961l0.26,10.644l5.545,0.048l-0.048-10.182c0,0,0.196-2.616-2.568-2.727 C336.349,371.636,335.925,373.961,335.925,373.961z"/> <path fill="#4D4D45" d="M343.058,373.581l0.064,10.824l5.64,0.046l0.054-10.358c0,0,0.195-2.615-2.569-2.726 C343.484,371.256,343.058,373.581,343.058,373.581z"/> <path fill="#4D4D45" d="M350.296,373.585l0.012,10.84h5.64l0.106-10.328c0,0,0.195-2.617-2.569-2.726 C350.72,371.26,350.296,373.585,350.296,373.585z"/> <path fill="#4D4D45" d="M340.725,393.736c-3.399-0.129-3.93,2.596-3.93,2.596l-0.098,13.174l4.318,0.098l2.791-3.785l0.071-8.881 C343.878,396.938,344.125,393.865,340.725,393.736z"/> <path fill="#4D4D45" d="M348.231,396.008l0.448,2.254l6.37,6.84l0.264-8.497c0,0,0.24-3.055-3.159-3.184 C348.753,393.293,348.231,396.008,348.231,396.008z"/> <path fill="#4D4D45" d="M387.827,443.243l-0.089,11.282l5.747,0.143l0.1-10.912c0,0,0.194-2.615-2.568-2.727 C388.251,440.919,387.827,443.243,387.827,443.243z"/> <path fill="#4D4D45" d="M387.827,443.243l-0.089,11.282l5.747,0.143l0.1-10.912c0,0,0.194-2.615-2.568-2.727 C388.251,440.919,387.827,443.243,387.827,443.243z"/> <path fill="#4D4D45" d="M385.066,473.833l-0.074,7.882l4.743,0.098l0.083-7.622c0,0,0.16-1.827-2.12-1.903 C385.416,472.209,385.066,473.833,385.066,473.833z"/> <path fill="#4D4D45" d="M394.729,473.838l-0.076,7.882l4.745,0.102l0.082-7.626c0,0,0.162-1.827-2.12-1.903 C395.078,472.214,394.729,473.838,394.729,473.838z"/> <path fill="#4D4D45" d="M403.823,473.793l-0.074,7.881l4.743,0.1l0.082-7.624c0,0,0.162-1.826-2.12-1.905 C404.174,472.168,403.823,473.793,403.823,473.793z"/> <path fill="#808073" d="M378.553,456.304l37.149,0.573l8.884,12.351l-45.657-0.346L378.553,456.304z"/> <path fill="#808073" d="M197.598,426.67l20.461-0.366l31.98,42.648l-18.895-0.106l-13.55-13.444L197.598,426.67z"/> <path fill="#595950" d="M140.703,471.93l21.767,0.707l0.159,46.506c0,0-2.516-5.562-5.693-6.09 c-3.179-0.531-8.609-2.518-10.728-1.457c-2.118,1.06-5.694-2.12-5.694-2.12L140.703,471.93z"/> <path fill="#4D4D45" d="M321.612,434.095l-25.425,30.17l32.023-0.082l-0.512-29.473L321.612,434.095z"/> <path fill="#808073" d="M343.415,317.892l-16.281,45.533l3.935-0.096l35.54-0.456L343.415,317.892z"/> <path fill="#4D4D45" d="M326.278,386.775l40.506-0.328l-3.276,2.383l-36.891,0.364L326.278,386.775z"/> <path fill="#4D4D45" d="M379.328,434.907l76.63,1.037l-29.865-24.264l-60.882,0.302l0.271,6.724L379.328,434.907z"/> <path fill="#8C8C7E" d="M286.347,434.793l0.243,29.408l15.027,0.113l0.47-7.366l19.706-22.389L286.347,434.793z"/> <path fill="#808073" d="M300.049,410.293l-13.248,22.225l35.812-1.261l-32.292-1.457l33.312-1.237l-31.542-1.357l32.44-1.044 l-28.968-1.431l29.258-1.067l-27.853-1.312l26.958-1.14l-27.976-1.335l27.587-1.092l-24.797-1.334l24.165-0.969l-24.457-1.434 l24.409-0.946l-22.322-1.406l22.299-0.705L300.049,410.293z"/> <path fill="#808073" d="M367.908,412.192l0.82,7.571l12.338,15.125l67.918-1.647l-68.343-1.15l64.139-1.849l-65.646-0.991 l62.021-1.704l-63.486-0.823l60.509-1.919l-61.654-0.73l58.328-1.897l-59.688-0.867l56.698-1.786l-58.063-1.368l54.979-1.333 l-53.222-1.323l-3.598-0.09l53.735-1.094L367.908,412.192z"/> <path fill="#808073" d="M350.005,404.345l-17.081,29.924l46.121,0.022l-42.317-2.219l38.621-2.037l-35.868-1.756l33.113-1.49 l-30.711-2.032l28.471-1.664l-26.419-1.589l23.446-1.902l-21.854-1.872l17.239-1.458l-15.726-1.543l12.275-1.351l-10.913-2.162 l7.245-0.913l-5.908-1.299l3.726-1.134L350.005,404.345z"/> <path fill="#D9D9C3" d="M343.243,321.149l-0.716,2.061l2.123-1.007L343.243,321.149z M342.453,323.401l-12.191,35.645 l-0.77,2.248l34.488-1.103l-31.625-1.558l27.476-1.38l1.163-0.058l-29.305-1.174l28.094-1.174l-27.105-1.486l25.551-1.487 l-23.057-1.246l21.749-1.318l-21.726-1.174l20.812-1.319l-19.33-1.199l18.467-1.222l-18.023-1.15l16.739-1.365l-15.825-1.079 l14.689-1.366l-14.219-0.911l12.984-1.175l-11.479-1.03l10.194-1.151l-10.319-1.102l9.259-1.03l-9.134-1.199l8.023-0.839 l-6.913-1.438l6.271-0.695l-5.852-1.342l4.986-0.718l-4.346-1.463l3.014-0.839L342.453,323.401z"/> <g> <path fill="#C19153" fill-opacity="0.9946" d="M343.243,321.149l-0.716,2.061l2.123-1.007L343.243,321.149z"/> </g> <g> <path fill="#C19153" fill-opacity="0.9946" d="M343.243,321.149l-0.716,2.061l2.123-1.007L343.243,321.149z"/> </g> <path fill="#D9D9C3" d="M343.243,321.149l-0.716,2.061l2.123-1.007L343.243,321.149z"/> <path fill="#4D4D45" d="M326.496,362.958l40.274-0.353l-2.146,3.121l-38.955,0.641L326.496,362.958z"/> <path fill="#4D4D45" d="M284.618,432.831l0.268,2.516l42.899-0.143l0.031-2.569L284.618,432.831z"/> <path fill="#4D4D45" d="M377.476,434.809l0.773,2.674l74.634,0.054l2.715-1.733L377.476,434.809z"/> <path fill="#4D4D45" d="M290.144,437.829l-0.07,25.696l1.823,0.046l0.347-24.181l22.697-0.172l2.063-1.984L290.144,437.829z"/> <path fill="#4D4D45" d="M295.838,443.044l-0.116,15.654l3.722-0.006l-0.197-15.73c0,0-0.819-1.176-1.672-1.153 C296.723,441.829,295.838,443.044,295.838,443.044z"/> <path fill="#4D4D45" d="M301.837,442.976l-0.118,15.7l3.675-5.016l-0.148-10.766c0,0-0.746-1.26-1.598-1.239 S301.837,442.976,301.837,442.976z"/> <path fill="#4D4D45" d="M329.965,369.349l-1.811,1.196l33.976-0.448l1.395-1.139L329.965,369.349z"/> <path fill="#4D4D45" d="M330.083,390.803L328.273,392l33.975-0.448l1.396-1.139L330.083,390.803z"/> <path fill="#4D4D45" d="M384.318,439.142l-3.675,1.197l68.942-0.448l2.829-1.138L384.318,439.142z"/> <path fill="#4D4D45" d="M340.471,440.027l-1.812,1.198l33.977-0.448l1.396-1.139L340.471,440.027z"/> <path fill="#4D4D45" d="M340.812,461.724l-1.811,1.197l33.976-0.451l1.395-1.135L340.812,461.724z"/> <path fill="#4D4D45" d="M360.983,369.895l1.03,0.079l0.023,15.421l1.449,0.063l-0.016-16.473L360.983,369.895z"/> <path fill="#4D4D45" d="M361.1,391.348l1.032,0.081l0.023,15.421l1.451,0.061l-0.018-16.474L361.1,391.348z"/> <path fill="#4D4D45" d="M449.618,439.838l1.031,0.082l0.024,15.42l1.449,0.062l-0.016-16.475L449.618,439.838z"/> <path fill="#4D4D45" d="M449.618,439.838l1.031,0.082l0.024,15.42l1.449,0.062l-0.016-16.475L449.618,439.838z"/> <path fill="#4D4D45" d="M449.554,459.112l1.03,0.135l0.025,25.916l1.448,0.104l-0.017-27.686L449.554,459.112z"/> <path fill="#4D4D45" d="M418.211,471.67l1.029,0.081l0.025,15.418l1.448,0.063l-0.016-16.474L418.211,471.67z"/> <path fill="#4D4D45" d="M371.489,440.573l1.031,0.079l0.024,15.423l1.448,0.062l-0.017-16.475L371.489,440.573z"/> <path fill="#4D4D45" d="M371.829,462.268l1.031,0.081l0.024,15.422l1.448,0.06l-0.016-16.473L371.829,462.268z"/> <path fill="#4D4D45" d="M327.587,465.192l6.686,0.342l-0.341-32.884l-6.48,0.273L327.587,465.192z"/> <path fill="#4D4D45" d="M333.658,437.086l45.573,0.107l-1.637-2.634l-44.277-0.068L333.658,437.086z"/> <path fill="#808073" d="M343.772,319.215l-0.238-6.209l-0.709-0.073l0.307,6.5L343.772,319.215z"/> <path fill="#4D4D45" d="M418.259,457.28l33.822,0.418l0.111,1.482l-33.219-0.323"/> <path fill="#4D4D45" d="M378.573,456.372l0.276,3.284l8.746,8.539l-7.731-10.454l1.195,0.024l11.086,10.456l-7.677-10.408 l1.421,0.023l11.242,10.604l-7.807-10.556l1.524,0.025l11.292,10.649l-7.834-10.602h1.324l11.393,10.773l-7.934-10.726 l1.576,0.024l11.267,10.65L404.1,458.08l1.68,0.024l11.164,10.555l-7.758-10.506l1.425,0.022l11.062,10.458l-7.706-10.408 l2.73,0.245l-0.788-1.506L378.573,456.372z M378.761,462.341l0.101,1.967l4.426,4.172L378.761,462.341z"/> <path fill="#808073" d="M266.331,461.46l0.048,0.219l0.096-0.219H266.331z M266.951,463.862l5.106,19.798l-1.432-18.076 l4.773,18.61l-1.623-20.282L266.951,463.862z M273.92,463.912l5.177,20.113l-1.599-19.943l5.131,19.943l-1.599-20.067 L273.92,463.912z M281.221,463.958l5.155,20.115l-1.599-20.09L281.221,463.958z M284.778,463.983l5.249,20.307l-1.599-20.137 l5.131,19.92l-1.624-20.041L284.778,463.983z M291.959,464.032l5.226,20.405l-1.551-19.361l5.013,19.482l-1.647-20.477 L291.959,464.032z M299.07,464.082l5.275,20.524l-1.648-20.501L299.07,464.082z M302.769,464.13l5.274,20.477l-1.621-20.453 L302.769,464.13z M306.683,464.153l5.272,20.575l-1.646-20.551L306.683,464.153z M310.549,464.178l5.227,20.308l-1.458-18.245 l4.75,18.488l-1.623-20.502L310.549,464.178z M317.588,464.227l5.298,20.697l-1.646-20.673L317.588,464.227z M321.454,464.251 l5.345,20.842l-1.646-20.818L321.454,464.251z M325.391,464.274l5.323,20.697l-1.575-19.776l5.104,19.897l-1.646-20.771 L325.391,464.274z M332.741,464.322l5.32,20.649l-1.646-20.624L332.741,464.322z M336.535,464.348l5.322,20.624l-1.503-18.975 l4.914,19.144l-1.646-20.744L336.535,464.348z M343.671,464.396l5.297,20.647l-1.526-19.314l4.844,18.829l-1.479-18.222 l4.82,18.756l-1.504-18.779l4.749,18.463l-1.623-20.284L343.671,464.396z"/> <path fill="#808073" d="M266.712,465.827l0.364,2.281l86.836-1.747L266.712,465.827z M267.611,471.261l0.363,2.208l85.235-1.698 L267.611,471.261z M268.605,477.353l0.388,2.328l87.587-1.794L268.605,477.353z"/> <path fill="#808073" d="M205.141,481.634v1.503h2.936v3.712h-3.032v1.505h3.032v3.833h-3.13v1.506h3.13v1.867h1.212v-1.867h2.62 v1.794h1.238v-7.133h0.025v-1.505h-0.025v-3.712h0.121v-1.503H205.141z M209.29,483.137h2.62v3.712h-2.62V483.137z M209.29,488.354h2.62v3.833h-2.62V488.354z"/> <path fill="#8C8C7E" d="M205.141,481.634v1.503h2.936v3.712h-3.032v1.505h3.032v3.833h-3.13v1.506h3.13v1.867h1.212v-1.867h2.62 v1.794h1.238v-7.133h0.025v-1.505h-0.025v-3.712h0.121v-1.503H205.141z M209.29,483.137h2.62v3.712h-2.62V483.137z M209.29,488.354h2.62v3.833h-2.62V488.354z"/> <path fill="#8C8C7E" d="M177.456,482.178v1.505h2.935v3.712h-3.033v1.506h3.033v3.833h-3.13v1.505h3.13v1.867h1.213v-1.867h2.62 v1.795h1.238V488.9h0.024v-1.506h-0.024v-3.712h0.121v-1.505H177.456z M181.604,483.683h2.62v3.712h-2.62V483.683z M181.604,488.9h2.62v3.833h-2.62V488.9z"/> <path fill="#808073" d="M281.721,489.532v0.846h1.697v2.087h-1.753v0.846h1.753v2.153h-1.81v0.845h1.81v1.05h0.7v-1.05h1.513 v1.01h0.716v-4.008h0.014v-0.846h-0.014v-2.087h0.07v-0.846H281.721z M284.247,490.262h1.515v2.084h-1.515V490.262z M284.247,493.191h1.515v2.152h-1.515V493.191z"/> <path fill="#808073" d="M292.822,489.75v0.849h1.698v2.084h-1.753v0.846h1.753v2.152h-1.809v0.846h1.809v1.049h0.701v-1.049 h1.515v1.01h0.714v-4.008h0.014v-0.846h-0.014v-2.084h0.069v-0.849H292.822z M295.22,490.599h1.515v2.084h-1.515V490.599z M295.22,493.528h1.515v2.152h-1.515V493.528z"/> <path fill="#808073" d="M333.95,489.694v0.843h1.695v2.088h-1.751v0.845h1.751v2.153h-1.808v0.847h1.808v1.048h0.702v-1.048 h1.516v1.008h0.714v-4.008h0.014v-0.845h-0.014v-2.088h0.07v-0.843H333.95z M336.348,490.537h1.516v2.088h-1.516V490.537z M336.348,493.47h1.516v2.153h-1.516V493.47z"/> <path fill="#808073" d="M325.035,489.694v0.843h1.695v2.088h-1.752v0.845h1.752v2.153h-1.808v0.847h1.808v1.048h0.702v-1.048 h1.515v1.008h0.715v-4.008h0.014v-0.845h-0.014v-2.088h0.069v-0.843H325.035z M327.433,490.537h1.515v2.088h-1.515V490.537z M327.433,493.47h1.515v2.153h-1.515V493.47z"/> <path fill="#4D4D45" d="M269.065,484.28l1.681,2.305l89.771,0.341l1.89-2.231L269.065,484.28z"/> <path fill="#68685E" d="M345.459,499.031h14.021v1.74h-14.021V499.031z"/> <path fill="#68685E" d="M303.906,499.176h14.023v1.74h-14.023V499.176z"/> <path fill="#68685E" d="M280.077,499.42l-0.02,1.132l6.817,0.003l0.324-0.855L280.077,499.42z"/> <path fill="#68685E" d="M290.996,499.684l-0.02,1.131l6.816,0.006l0.325-0.857L290.996,499.684z"/> <path fill="#68685E" d="M323.249,499.641l-0.021,1.131l6.817,0.006l0.324-0.857L323.249,499.641z"/> <path fill="#68685E" d="M332.154,499.79l-0.02,1.131l6.814,0.005l0.327-0.855L332.154,499.79z"/> <path fill="#8C8C7E" d="M323.736,438.465l3.187-3.435v29.05l-3.372-0.122L323.736,438.465z"/> <path fill="#595950" d="M227.344,442.156l-18.177,1.101l20.473,1.968L227.344,442.156z"/> <path fill="#595950" d="M216.465,427.129l-16.885,1.086l14.749,1.266l-13.102,1.283l17.517,1.046l-15.977,1.061l16.002,1.487 l-14.259,1.041l19.111,1.508L216.465,427.129z M223.646,436.954l-16.896,1.239l18.4,1.43l-15.901,1.239l18.327,1.453 L223.646,436.954z M229.543,445.033l-18.44,1.141l20.404,1.527L229.543,445.033z M231.823,448.164l-18.658,1.163l20.648,1.553 L231.823,448.164z M234.201,451.391l-17.956,1.141l19.872,1.504L234.201,451.391z M236.457,454.521l-18.026,1.116l19.943,1.479 L236.457,454.521z M238.737,457.625l-17.638,1.094l19.507,1.479L238.737,457.625z M240.994,460.707l-16.596,1.045l18.343,1.358 L240.994,460.707z M243.324,463.91l-16.765,1.045l18.536,1.382L243.324,463.91z"/> <path fill="#595950" d="M242.567,463.067l-16.008,1.888l18.414,1.394L242.567,463.067z"/> <path fill="#8C8C7E" d="M173.72,499.6l0.08,1.496l14.486,0.253l1.443-1.433L173.72,499.6z"/> <path fill="#8C8C7E" d="M200.916,499.172l0.079,1.496l14.487,0.25l1.442-1.43L200.916,499.172z"/> </g> <g id="Layer_6_2_" clip-path="url(#SVGID_2_)"> <path fill="#99998A" d="M121.073,509.673c0-7.107,5.504-12.869,12.295-12.869c6.791,0,12.297,5.762,12.297,12.869 c0,7.106-5.506,12.868-12.297,12.868C126.577,522.541,121.073,516.779,121.073,509.673z"/> <path fill="#99998A" d="M141.521,507.464c0-5.358,4.437-9.7,9.911-9.7c5.474,0,9.911,4.342,9.911,9.7 c0,5.359-4.437,9.703-9.911,9.703C145.957,517.167,141.521,512.823,141.521,507.464z"/> <path fill="#99998A" d="M148.144,519.419c0-4.59,3.555-8.312,7.94-8.312c4.386,0,7.942,3.722,7.942,8.312s-3.556,8.31-7.942,8.31 C151.698,527.729,148.144,524.009,148.144,519.419z"/> <path fill="#99998A" d="M234.832,507.456c-4.386,0-7.934,3.707-7.934,8.297s3.548,8.324,7.934,8.324 c4.385,0,7.958-3.734,7.958-8.324S239.218,507.456,234.832,507.456z M234.807,509.614c3.144,0.76,2.742,3.494,2.742,3.494 s-3.22-2.37-6.867-1.263C230.683,511.846,231.664,508.856,234.807,509.614z"/> <path fill="#99998A" d="M224.116,511.613c-4.386,0-7.934,3.707-7.934,8.297c0,4.589,3.548,8.321,7.934,8.321 c4.385,0,7.958-3.732,7.958-8.321C232.074,515.32,228.502,511.613,224.116,511.613z M224.092,513.771 c3.143,0.76,2.742,3.494,2.742,3.494s-3.22-2.37-6.867-1.263C219.967,516.003,220.948,513.013,224.092,513.771z"/> <path fill="#99998A" d="M224.116,511.613c-4.386,0-7.934,3.707-7.934,8.297c0,4.589,3.548,8.321,7.934,8.321 c4.385,0,7.958-3.732,7.958-8.321C232.074,515.32,228.502,511.613,224.116,511.613z M224.092,513.771 c3.143,0.76,2.742,3.494,2.742,3.494s-3.22-2.37-6.867-1.263C219.967,516.003,220.948,513.013,224.092,513.771z"/> <path fill="#99998A" d="M173.968,513.321c-4.386,0-7.934,3.71-7.934,8.3c0,4.588,3.548,8.32,7.934,8.32 c4.385,0,7.958-3.732,7.958-8.32C181.926,517.031,178.353,513.321,173.968,513.321z M173.943,515.482 c3.144,0.759,2.743,3.493,2.743,3.493s-3.221-2.372-6.867-1.262C169.819,517.714,170.8,514.723,173.943,515.482z"/> <path fill="#99998A" d="M186.755,510.007c-4.385,0-7.934,3.709-7.934,8.299c0,4.587,3.549,8.321,7.934,8.321 s7.958-3.734,7.958-8.321C194.713,513.716,191.14,510.007,186.755,510.007z M186.73,512.168c3.144,0.758,2.743,3.491,2.743,3.491 s-3.22-2.371-6.866-1.26C182.606,514.399,183.588,511.406,186.73,512.168z"/> <path fill="#99998A" d="M198.551,515.118c-4.385,0-7.934,3.706-7.934,8.296s3.548,8.321,7.934,8.321 c4.386,0,7.959-3.731,7.959-8.321S202.936,515.118,198.551,515.118z M198.528,517.275c3.143,0.759,2.74,3.495,2.74,3.495 s-3.22-2.372-6.865-1.263C194.403,519.508,195.384,516.517,198.528,517.275z"/> <path fill="#99998A" d="M244.237,513.539c-3.579,0-6.473,2.839-6.473,6.348c0,3.512,2.895,6.366,6.473,6.366 s6.494-2.854,6.494-6.366C250.73,516.378,247.816,513.539,244.237,513.539z M244.217,515.193c2.564,0.58,2.237,2.672,2.237,2.672 s-2.626-1.814-5.603-0.966C240.852,516.899,241.653,514.611,244.217,515.193z"/> <path fill="#99998A" d="M160.948,521.658"/> <g> <polygon fill="#68685E" points="116.134,455.503 153.09,457.188 116.647,459.163 116.688,459.452 153.426,461.243 155.387,457.292 156.831,457.356 159.054,453.172 116.113,455.348 "/> <polygon fill="#68685E" points="117.29,463.751 148.193,465.342 150.158,461.157 117.191,463.045 "/> <polygon fill="#68685E" points="117.878,467.942 143.356,469.553 144.958,465.367 117.784,467.275 "/> <polygon fill="#68685E" points="176.428,426.469 125.434,428.726 173.884,430.654 "/> <polygon fill="#68685E" points="166.034,444.031 168.576,439.847 117.584,442.105 "/> <polygon fill="#68685E" points="173.112,435.157 175.655,430.974 124.662,433.23 "/> <polygon fill="#68685E" points="115.537,451.242 160.607,453.036 163.15,448.853 115.498,450.961 "/> <polygon fill="#68685E" points="170.252,439.577 172.796,435.393 121.803,437.65 "/> <polygon fill="#68685E" points="164.033,448.693 166.577,444.51 115.584,446.766 "/> </g> <path fill="#99998A" d="M120.43,472.806l16.923,0.857L120.43,472.806z"/> <path fill="#99998A" d="M133.927,473.27l4.745,1.201"/> <path fill="#FFFFFF" d="M243.403,505.475c0,0,47.604,17.752,3.384,26.418c-44.223,8.668-58.325,10.199-58.325,10.199 l-1.404,9.938c0,0,83.441-13.206,86.699-23.656C277.922,515.004,243.403,505.475,243.403,505.475z"/> <path fill="#E6E5CF" d="M128.847,500.802c0,0,3.104-4.468,6.816,0.081s2.113,7.712,2.113,7.712S133.407,499.868,128.847,500.802z "/> <path fill="#E6E5CF" d="M128.847,500.802c0,0,4.785-4.468,10.507,0.081c5.72,4.549,3.255,7.712,3.255,7.712 S135.875,499.868,128.847,500.802z"/> <path fill="#E6E5CF" d="M149.016,500.959c0,0,3.332-3.111,7.316,0.056c3.983,3.17,2.268,5.372,2.268,5.372 S153.911,500.309,149.016,500.959z"/> <path fill="#E6E5CF" d="M144.784,501.492c0,0,3.333-3.109,7.316,0.059c3.983,3.168,2.267,5.369,2.267,5.369 S149.679,500.846,144.784,501.492z"/> <path fill="#99998A" d="M106.638,500.298c3.415,0,6.329,1.754,7.616,4.239c0.351-0.038,0.691-0.084,1.054-0.084 c4.603,0,8.332,3.15,8.332,7.039c0,1.769-0.855,3.326-2.127,4.563c1.429,1.267,2.326,2.95,2.326,4.836 c0,3.892-3.73,7.044-8.332,7.044c-1.093,0-2.125-0.189-3.082-0.514c-1.528,1.576-3.745,2.649-6.343,2.649 c-3.489,0-6.475-1.819-7.715-4.393c-1.111,0.463-2.317,0.787-3.639,0.787c-4.602,0-8.332-3.152-8.332-7.042 c0-2.576,1.715-4.736,4.156-5.966c-0.485-0.894-0.795-1.875-0.795-2.923c0-3.889,3.73-7.041,8.331-7.041 c0.555,0,1.106,0.065,1.631,0.154C101.196,501.683,103.679,500.298,106.638,500.298z M106.832,503.771 c-0.575-0.1-1.207-0.057-1.911,0.137c-1.93,0.525-2.331,2.322-2.465,3.638c-0.786-1.336-2.209-2.047-4.135-1.521 c-2.811,0.767-2.645,5.06-2.645,5.06s0.387-2.259,3.5-3.248c1.427-0.453,2.447,0.324,3.142,1.027c0,0.002-0.02,0.084-0.02,0.084 s0.04-0.063,0.04-0.068c0.368,0.376,0.796,0.837,0.796,0.837c-0.028-0.641-0.184-1.214-0.398-1.726 c0.393-0.744,1.122-1.662,3.042-2.272c2.215-0.703,3.957,1.881,3.957,1.881C109.647,505.562,108.554,504.062,106.832,503.771z M115.123,507.836c-0.417-0.066-0.846-0.058-1.272,0.035c-0.568,0.121-1.129,0.39-1.67,0.819 c-0.46,0.368-0.693,0.835-0.816,1.334c-0.814-1.194-2.172-1.813-3.997-1.315c-2.242,0.612-2.481,3.009-2.524,4.137 c-0.751-1.478-2.271-2.263-4.295-1.71c-2.812,0.767-2.626,5.061-2.626,5.061s0.388-2.261,3.5-3.25 c2.214-0.703,3.937,1.881,3.937,1.881c-0.026-0.61-0.162-1.146-0.358-1.64c0.225-0.648,0.812-1.903,3.221-2.668 c1.454-0.462,2.475,0.337,3.162,1.044c0.145,0.867,0.295,1.249,0.538,1.742c-0.811,0.302-1.506,0.81-1.891,1.744 c-0.107,0.265-0.142,0.523-0.138,0.787c-2.432-1.228-4.891-0.917-5.806,1.314c-0.171,0.415-0.167,0.825-0.08,1.23 c-1.977-0.547-3.778-0.013-4.534,1.829c-0.981,2.391,3.103,4.853,3.103,4.853s-1.852-1.609-0.895-4.339 c0.407-1.164,1.608-1.473,2.664-1.556c0.849,1.565,2.843,2.82,2.843,2.82s-1.851-1.611-0.894-4.342 c0.587-1.677,2.905-1.614,3.62-1.573c0.238,1.902,2.741,3.488,3.042,3.676c-0.4,0.552-0.916,1.248-0.916,1.248 s1.515-1.86,4.812-1.556c2.349,0.217,2.565,3.177,2.565,3.177c1.299-2.474,0.509-4.756-2.405-5.144 c-1.917-0.253-3.186,1.093-4.017,2.222c-0.263-0.253-1.628-1.66-0.756-4.151c0.681-1.944,4.116-1.574,4.116-1.574 c-1.44-0.863-2.907-1.111-4.116-0.803c-0.005-0.819,0.216-1.91,1.63-3.145c1.656-1.447,4.495,0.24,4.495,0.24 C117.549,508.906,116.378,508.033,115.123,507.836z M94.643,515.614c-1.136,0.166-2.056,0.819-2.546,2.016 c-0.982,2.389,3.102,4.838,3.102,4.838s-1.852-1.611-0.894-4.342c0.68-1.943,4.114-1.589,4.114-1.589 C97.124,515.758,95.778,515.446,94.643,515.614z"/> </g> <rect x="126.074" y="479.632" clip-path="url(#SVGID_2_)" fill="#68685E" width="3.583" height="2.895"/> <rect x="126.074" y="484.064" clip-path="url(#SVGID_2_)" fill="#68685E" width="3.583" height="2.893"/> <rect x="126.165" y="488.452" clip-path="url(#SVGID_2_)" fill="#68685E" width="3.582" height="2.895"/> <rect x="116.025" y="468.753" clip-path="url(#SVGID_2_)" fill="#595950" width="2.102" height="35.351"/> <polygon clip-path="url(#SVGID_2_)" fill="#4D4D45" points="105.196,464.874 118.127,468.753 118.112,472.472 105.33,468.287 "/> <path clip-path="url(#SVGID_2_)" fill="#FFFFFF" d="M48.394,541.38c8.163,1.256,70.324,18.21,115.533,18.838 c45.208,0.627,133.741-21.977,146.926-27.629c13.185-5.65,21.977-6.908,21.977-6.908l183.344-16.324l20.092-12.557l21.977,2.513 L545.685,627.4L43.999,638.075L48.394,541.38z"/> <path clip-path="url(#SVGID_2_)" fill="#FFFFFF" d="M189.462,545.818l-1-3.727c0,0-134.06,19.707-127.793,45.09 c17.548-10.969-0.313,0.94,26.009-7.52c8.401-2.703,84.814-25.181,100.38-27.633C202.623,549.578,189.462,545.818,189.462,545.818 z"/> <path clip-path="url(#SVGID_2_)" fill="#FFFFFF" d="M292.017,522.666c0,0,90.92-24.049,131.98-21.116 c41.06,2.935,83.293,4.105,97.37,2.935c14.077-1.174,53.377-9.387,53.377-9.387l-6.452,24.052 C568.292,519.149,320.172,535.57,292.017,522.666z"/> <path clip-path="url(#SVGID_2_)" fill="#CCCCB8" d="M317.878,519.355l-14.884,1.362c0,0-24.335,1.252-3.129,6.772 c21.208,5.521,163.856,17.723,203.948,18.012c40.092,0.291,54.328,0,54.328,0s2.906-31.958,0-31.667 c-2.905,0.291-46.483-4.066-89.772,4.359c-43.288,8.422-61.009-0.291-77.279-2.907 C374.821,512.674,324.85,518.773,317.878,519.355z"/> </g> <polygon fill="#8C8C7E" points="176.361,500.529 176.346,502.074 193.266,502.576 193.266,500.794 "/> <polygon fill="#595950" points="154.256,498.079 149.461,496.605 155.578,472.77 159.443,499.6 "/> <polygon fill="#595950" points="263.531,490.013 247.787,489.766 247.858,494.438 232.531,494.793 232.57,496.316 270.527,504.109 263.614,500.529 "/> </g> <g id="Warstwa_3"> </g> <g id="Warstwa_4"> </g> </svg>